<?xml version='1.0' encoding='utf-8'?>
<svg xmlns="http://www.w3.org/2000/svg" width="1500.091" height="400" viewBox="0 0 1500.091 400">
  <g id="Group_77" data-name="Group 77" transform="translate(-209.909 -340)">
    <rect id="Rectangle_28" data-name="Rectangle 28" width="1500" height="400" transform="translate(210 340)" fill="#3a255d" />
    <g id="_1" data-name="1" transform="translate(1110 340)">
      <g id="Ñëîé_1">
        <g id="Group_2" data-name="Group 2" transform="translate(-152.554 328)">
          <g id="Group_1" data-name="Group 1">
            <rect id="Rectangle_2" data-name="Rectangle 2" width="753" height="72" transform="translate(-0.446)" fill="#3a255d" />
            <path id="Path_1" data-name="Path 1" d="M752.554,333.15H723.28L718.037,328h-1.129l5.243,5.15h-61.9l-4.29-5.15H654.91l4.29,5.15H597.227L593.891,328h-.978l3.336,5.15H534.213L531.83,328H530.9l2.383,5.15H471.212l-1.43-5.15h-.9l1.43,5.15h-62.1l-.477-5.15h-.878l.477,5.15H345.222L345.7,328h-.878l-.477,5.15h-62.1l1.43-5.15h-.9l-1.43,5.15H219.269l2.383-5.15h-.928l-2.383,5.15H156.318l3.336-5.15h-.991l-3.336,5.15H93.354l4.29-5.15H96.59l-4.29,5.15H30.4L35.646,328H34.517l-5.243,5.15H0v.7H28.559L5.9,356.15H0v.7H5.193L0,361.95v1.11l6.321-6.21H72.6l-25.2,30.3H0v.7H46.821L36.712,400h1.054l10.109-12.15h72.07L112.093,400h.978l7.864-12.15h72.132L187.449,400h.941l5.619-12.15h72.17L262.817,400h.9l3.361-12.15h72.208L338.173,400h.878l1.116-12.15h72.22L413.5,400h.878l-1.116-12.15h72.208L488.834,400h.9l-3.361-12.15h72.17L564.165,400h.941l-5.619-12.15h72.132L639.483,400h.978l-7.852-12.15h72.07l10.1,12.15h1.066l-10.109-12.15h46.821v-.7h-47.4l-25.2-30.3h66.275l6.321,6.22v-1.11l-5.193-5.11h5.193v-.7h-5.9l-22.664-22.3h28.559v-.7Zm-92.777.7,18.55,22.3H612.1l-14.424-22.3Zm-63.077,0,14.424,22.3H544.837l-10.3-22.3Zm-63.1,0,10.31,22.3H477.583l-6.183-22.3Zm-63.089,0,6.171,22.3H410.33l-2.057-22.3Zm-125.35,0H407.4l2.057,22.3H343.1l2.057-22.3Zm-63.114,0h62.236l-2.07,22.3H275.874Zm-63.089,0h62.2l-6.184,22.3H208.646Zm-63.1,0h62.161l-10.3,22.3H141.43Zm-63.077,0h62.1l-14.424,22.3H74.227l18.55-22.3ZM7.036,356.15,29.7,333.85H91.724l-18.55,22.3Zm113.36,31H48.452l25.2-30.3H140Zm73,0H121.387l19.591-30.3h66.413Zm72.985,0H194.322l14-30.3H274.77Zm72.973,0H267.27l8.4-30.3h66.476l-2.8,30.3Zm.878,0,2.81-30.3h66.488l2.8,30.3Zm72.973,0-2.8-30.3h66.476l8.4,30.3Zm72.973,0-8.391-30.3h66.451l14,30.3Zm72.985,0-14-30.3h66.413l19.591,30.3Zm144.942,0H632.158l-19.6-30.3H678.9l25.2,30.3Zm41.428-31H679.381l-18.55-22.3h62.023l22.677,22.3Z" transform="translate(0 -328)" fill="#fff" />
          </g>
        </g>
        <g id="Group_76" data-name="Group 76" transform="translate(-900.091 328)">
          <g id="Group_1-2" data-name="Group 1">
            <rect id="Rectangle_2-2" data-name="Rectangle 2" width="752" height="72" transform="translate(0.091)" fill="#3a255d" />
            <path id="Path_1-2" data-name="Path 1" d="M752.554,333.15H723.28L718.037,328h-1.129l5.243,5.15h-61.9l-4.29-5.15H654.91l4.29,5.15H597.227L593.891,328h-.978l3.336,5.15H534.213L531.83,328H530.9l2.383,5.15H471.212l-1.43-5.15h-.9l1.43,5.15h-62.1l-.477-5.15h-.878l.477,5.15H345.222L345.7,328h-.878l-.477,5.15h-62.1l1.43-5.15h-.9l-1.43,5.15H219.269l2.383-5.15h-.928l-2.383,5.15H156.318l3.336-5.15h-.991l-3.336,5.15H93.354l4.29-5.15H96.59l-4.29,5.15H30.4L35.646,328H34.517l-5.243,5.15H0v.7H28.559L5.9,356.15H0v.7H5.193L0,361.95v1.11l6.321-6.21H72.6l-25.2,30.3H0v.7H46.821L36.712,400h1.054l10.109-12.15h72.07L112.093,400h.978l7.864-12.15h72.132L187.449,400h.941l5.619-12.15h72.17L262.817,400h.9l3.361-12.15h72.208L338.173,400h.878l1.116-12.15h72.22L413.5,400h.878l-1.116-12.15h72.208L488.834,400h.9l-3.361-12.15h72.17L564.165,400h.941l-5.619-12.15h72.132L639.483,400h.978l-7.852-12.15h72.07l10.1,12.15h1.066l-10.109-12.15h46.821v-.7h-47.4l-25.2-30.3h66.275l6.321,6.22v-1.11l-5.193-5.11h5.193v-.7h-5.9l-22.664-22.3h28.559v-.7Zm-92.777.7,18.55,22.3H612.1l-14.424-22.3Zm-63.077,0,14.424,22.3H544.837l-10.3-22.3Zm-63.1,0,10.31,22.3H477.583l-6.183-22.3Zm-63.089,0,6.171,22.3H410.33l-2.057-22.3Zm-125.35,0H407.4l2.057,22.3H343.1l2.057-22.3Zm-63.114,0h62.236l-2.07,22.3H275.874Zm-63.089,0h62.2l-6.184,22.3H208.646Zm-63.1,0h62.161l-10.3,22.3H141.43Zm-63.077,0h62.1l-14.424,22.3H74.227l18.55-22.3ZM7.036,356.15,29.7,333.85H91.724l-18.55,22.3Zm113.36,31H48.452l25.2-30.3H140Zm73,0H121.387l19.591-30.3h66.413Zm72.985,0H194.322l14-30.3H274.77Zm72.973,0H267.27l8.4-30.3h66.476l-2.8,30.3Zm.878,0,2.81-30.3h66.488l2.8,30.3Zm72.973,0-2.8-30.3h66.476l8.4,30.3Zm72.973,0-8.391-30.3h66.451l14,30.3Zm72.985,0-14-30.3h66.413l19.591,30.3Zm144.942,0H632.158l-19.6-30.3H678.9l25.2,30.3Zm41.428-31H679.381l-18.55-22.3h62.023l22.677,22.3Z" transform="translate(0 -328)" fill="#fff" />
          </g>
        </g>
        <ellipse id="Ellipse_1" data-name="Ellipse 1" cx="106.5" cy="10.5" rx="106.5" ry="10.5" transform="translate(212 345)" fill="#bee2ea" opacity="0.8" />
        <g id="Group_7" data-name="Group 7">
          <g id="Group_4" data-name="Group 4">
            <rect id="Rectangle_3" data-name="Rectangle 3" width="80.96" height="204.56" transform="translate(175.2 44.04)" fill="#3a255d" />
            <rect id="Rectangle_4" data-name="Rectangle 4" width="81.95" height="204.56" transform="translate(258.35 44.04)" fill="#3a255d" />
            <path id="Path_2" data-name="Path 2" d="M260.68,45.48l-2.33,3.08V45.48Z" fill="#fff" />
            <path id="Path_3" data-name="Path 3" d="M339.32,78.16V96.64l-80.97,107.9V186.08Z" fill="#fff" opacity="0.3" />
            <path id="Path_4" data-name="Path 4" d="M339.32,105.42v4.44L258.35,216.59v-4.44Z" fill="#fff" opacity="0.3" />
            <g id="Group_3" data-name="Group 3" opacity="0.3">
              <path id="Path_5" data-name="Path 5" d="M251.09,45.48,175.2,146.61V128.14l62.01-82.66Z" fill="#fff" />
              <path id="Path_6" data-name="Path 6" d="M256.16,47.01v4.43l-1.82,2.4L223.37,94.67l-1.58,2.07-5.2,6.85-1.81,2.4-29.49,38.89-1.59,2.08-6.68,8.81-1.82,2.4-1.82,2.39v-4.44l1.82-2.39,1.82-2.4,3.32-4.37,1.58-2.08,32.86-43.32,1.81-2.39,1.84-2.43L220,94.67l34.34-45.26Z" fill="#fff" />
              <path id="Path_7" data-name="Path 7" d="M207.61,45.48,175.2,88.34v-7.7l26.58-35.16Z" fill="#fff" />
              <path id="Path_8" data-name="Path 8" d="M213.97,246.37l42.19-56.25v18.46l-28.35,37.79Z" fill="#fff" />
              <path id="Path_9" data-name="Path 9" d="M232.39,246.37l23.77-31.34v4.44l-20.4,26.9Z" fill="#fff" />
              <path id="Path_10" data-name="Path 10" d="M177.36,246.37l78.8-104.23v7.7l-73,96.53Z" fill="#fff" />
            </g>
            <path id="Path_11" data-name="Path 11" d="M335.08,45.48,258.35,146.95v-7.7l70.89-93.77Z" fill="#fff" opacity="0.3" />
            <rect id="Rectangle_5" data-name="Rectangle 5" width="1.82" height="203.27" transform="translate(214.77 44.04)" fill="#3a255d" />
            <rect id="Rectangle_6" data-name="Rectangle 6" width="80.96" height="2.08" transform="translate(175.2 195.1)" fill="#3a255d" />
            <rect id="Rectangle_7" data-name="Rectangle 7" width="80.96" height="2.08" transform="translate(175.2 144.88)" fill="#3a255d" />
            <rect id="Rectangle_8" data-name="Rectangle 8" width="80.96" height="2.08" transform="translate(175.2 94.66)" fill="#3a255d" />
            <rect id="Rectangle_9" data-name="Rectangle 9" width="1.82" height="203.27" transform="translate(297.92 44.04)" fill="#3a255d" />
            <rect id="Rectangle_10" data-name="Rectangle 10" width="80.96" height="2.08" transform="translate(258.35 195.1)" fill="#3a255d" />
            <rect id="Rectangle_11" data-name="Rectangle 11" width="80.96" height="2.08" transform="translate(258.35 144.88)" fill="#3a255d" />
            <rect id="Rectangle_12" data-name="Rectangle 12" width="80.96" height="2.08" transform="translate(258.35 94.66)" fill="#3a255d" />
            <path id="Path_12" data-name="Path 12" d="M260.05,250.14H172.72V41.71h87.33V250.14Zm-84.13-3.39h80.94V45.1H175.92V246.75Z" fill="#4c6880" />
            <path id="Path_13" data-name="Path 13" d="M342.74,250.14H255.41V41.71h87.33V250.14Zm-84.13-3.39h80.94V45.1H258.61Z" fill="#4c6880" />
          </g>
          <g id="Group_6" data-name="Group 6">
            <rect id="Rectangle_13" data-name="Rectangle 13" width="166" height="5" transform="translate(174 44)" fill="#3a255d" />
            <rect id="Rectangle_14" data-name="Rectangle 14" width="166" height="5" transform="translate(174 52)" fill="#3a255d" />
            <rect id="Rectangle_15" data-name="Rectangle 15" width="166" height="5" transform="translate(174 60)" fill="#3a255d" />
            <rect id="Rectangle_16" data-name="Rectangle 16" width="166" height="5" transform="translate(174 68)" fill="#3a255d" />
            <rect id="Rectangle_17" data-name="Rectangle 17" width="166" height="5" transform="translate(174 76)" fill="#3a255d" />
            <rect id="Rectangle_18" data-name="Rectangle 18" width="166" height="5" transform="translate(174 84)" fill="#3a255d" />
            <rect id="Rectangle_19" data-name="Rectangle 19" width="166" height="5" transform="translate(174 92)" fill="#3a255d" />
            <rect id="Rectangle_20" data-name="Rectangle 20" width="166" height="5" transform="translate(174 100)" fill="#3a255d" />
            <rect id="Rectangle_21" data-name="Rectangle 21" width="166" height="5" transform="translate(174 108)" fill="#3a255d" />
            <rect id="Rectangle_22" data-name="Rectangle 22" width="166" height="5" transform="translate(174 116)" fill="#3a255d" />
            <rect id="Rectangle_23" data-name="Rectangle 23" width="166" height="5" transform="translate(174 124)" fill="#3a255d" />
            <rect id="Rectangle_24" data-name="Rectangle 24" width="166" height="5" transform="translate(174 132)" fill="#3a255d" />
            <g id="Group_5" data-name="Group 5">
              <rect id="Rectangle_25" data-name="Rectangle 25" width="3" height="87" transform="translate(185 47)" fill="#3a255d" />
              <rect id="Rectangle_26" data-name="Rectangle 26" width="3" height="87" transform="translate(326 47)" fill="#3a255d" />
            </g>
          </g>
        </g>
        <g id="Group_16" data-name="Group 16">
          <rect id="Rectangle_27" data-name="Rectangle 27" width="85.13" height="72.86" rx="3.34" transform="translate(315.9 281.35)" fill="#3a255d" />
          <g id="Group_15" data-name="Group 15">
            <g id="Group_10" data-name="Group 10">
              <g id="Group_8" data-name="Group 8">
                <path id="Path_14" data-name="Path 14" d="M360.75,351.14c-1.08.05-2.69.54-3.72.09-1.76-.77-1.5-4.2-1.6-5.75-.21-3.13-.41-6.26-.62-9.39a14.706,14.706,0,0,1,.18-4.59,4.944,4.944,0,0,1,2.75-3.48,26.194,26.194,0,0,1,6.42-1.73c2.36-.19,2.5,1.47,2.33,3.64-.36,4.59-1.12,9.14-1.44,13.73-.11,1.61.66,5.77-.03,7.06-.8,1.48-2.71.33-4.28.41Z" fill="#ffa87d" />
                <path id="Path_15" data-name="Path 15" d="M365.72,347.52c.38.32.76.65,1.16.96a32.781,32.781,0,0,1,2.83,2.31,1.431,1.431,0,0,1,.57,1.03c-.05.64-.92.92-1.63.98a21.875,21.875,0,0,1-2.29.03c-3.34-.08-6.58-.43-9.9-.76a2.322,2.322,0,0,1-.98-.24c-.72-.42-.67-1.37-.49-2.12a8.19,8.19,0,0,1,1.66-3.54,4.723,4.723,0,0,1,3.72-1.65,6.57,6.57,0,0,1,3.06,1.23,22.33,22.33,0,0,1,2.28,1.77Z" fill="#ffa87d" />
                <path id="Path_16" data-name="Path 16" d="M379.63,355.4l-15.31-.05c-1.25-.15-2.5-.32-3.76-.48a2.129,2.129,0,0,0-1.54.21,3.706,3.706,0,0,0-.28.26l-4.59-.02a3.194,3.194,0,0,1-.11-1.11,1.856,1.856,0,0,0-.08-.6c-.07-.21-.18-.41-.23-.63a2.153,2.153,0,0,1-.02-.67c.09-.89.53-2.94,1.58-3.46a1.168,1.168,0,0,1,.81-.09q4.65,1.08,9.29,2.16a3.452,3.452,0,0,1-.97-2.22,1.48,1.48,0,0,1,.66-1.33,1.78,1.78,0,0,1,1.82.13c1.65.98,3.09,2.25,4.8,3.13,2.25,1.16,4.86,1.58,7.09,2.77a1.919,1.919,0,0,1,.87.89,1.245,1.245,0,0,1-.04,1.11Z" fill="#824a2b" />
                <path id="Path_17" data-name="Path 17" d="M379.64,354.29c.06.02.07.1.09.15a1.419,1.419,0,0,1,.04.2,1.61,1.61,0,0,1,0,.38,1.335,1.335,0,0,1-.05.19.689.689,0,0,1-.04.1.792.792,0,0,1-.04.09l-15.31-.05c-1.25-.15-2.5-.32-3.75-.48a2.122,2.122,0,0,0-1.54.21,3.706,3.706,0,0,0-.28.26l-4.59-.02a3.194,3.194,0,0,1-.11-1.11h25.57Z" fill="#020808" />
                <path id="Path_18" data-name="Path 18" d="M371.34,349.63a1.461,1.461,0,0,0-1.24.16,12.6,12.6,0,0,0-2.76,2.69c-.23.31.41.52.63.55a1.19,1.19,0,0,0,1.11-.31,11.707,11.707,0,0,1,2.58-2.48c.34-.24-.07-.53-.32-.61Z" fill="#020808" />
              </g>
              <g id="Group_9" data-name="Group 9">
                <path id="Path_19" data-name="Path 19" d="M397.53,351.14c-1.08.05-2.69.54-3.72.09-3.02-1.33-.32-6.84.2-8.96q1.35-5.46,2.28-11a10.556,10.556,0,0,1,.71-2.73c1.35-2.84,5.93-2.82,8.37-1.74a2.441,2.441,0,0,1,1.86,2.75c-.04,3.67-1.12,7.23-2.19,10.74q-1.32,4.3-2.64,8.63c-.36,1.18-.44,2.37-1.84,2.58-1,.15-2.03-.4-3.04-.35Z" fill="#ffa87d" />
                <path id="Path_20" data-name="Path 20" d="M402.49,347.52c.38.32.76.65,1.16.96a32.781,32.781,0,0,1,2.83,2.31,1.431,1.431,0,0,1,.57,1.03c-.05.64-.92.92-1.63.98a21.875,21.875,0,0,1-2.29.03c-3.34-.08-6.58-.43-9.9-.76a2.322,2.322,0,0,1-.98-.24c-.72-.42-.67-1.37-.49-2.12a8.19,8.19,0,0,1,1.66-3.54,4.723,4.723,0,0,1,3.72-1.65,6.57,6.57,0,0,1,3.06,1.23,22.33,22.33,0,0,1,2.28,1.77Z" fill="#ffa87d" />
                <path id="Path_21" data-name="Path 21" d="M416.41,355.4l-15.31-.05c-1.25-.15-2.5-.32-3.76-.48a2.129,2.129,0,0,0-1.54.21,3.706,3.706,0,0,0-.28.26l-4.59-.02a3.194,3.194,0,0,1-.11-1.11,1.856,1.856,0,0,0-.08-.6c-.07-.21-.18-.41-.23-.63a2.153,2.153,0,0,1-.02-.67c.09-.89.53-2.94,1.58-3.46a1.168,1.168,0,0,1,.81-.09q4.65,1.08,9.29,2.16a3.452,3.452,0,0,1-.97-2.22,1.48,1.48,0,0,1,.66-1.33,1.78,1.78,0,0,1,1.82.13c1.65.98,3.09,2.25,4.8,3.13,2.25,1.16,4.86,1.58,7.09,2.77a1.919,1.919,0,0,1,.87.89,1.245,1.245,0,0,1-.04,1.11Z" fill="#824a2b" />
                <path id="Path_22" data-name="Path 22" d="M416.41,354.29c.06.02.07.1.09.15a1.419,1.419,0,0,1,.04.2,1.61,1.61,0,0,1,0,.38,1.335,1.335,0,0,1-.05.19.689.689,0,0,1-.04.1c0,.01-.03.09-.04.09l-15.31-.05c-1.25-.15-2.5-.32-3.75-.48a2.122,2.122,0,0,0-1.54.21,3.706,3.706,0,0,0-.28.26l-4.59-.02a3.194,3.194,0,0,1-.11-1.11h25.56Z" fill="#020808" />
                <path id="Path_23" data-name="Path 23" d="M408.12,349.63a1.461,1.461,0,0,0-1.24.16,12.6,12.6,0,0,0-2.76,2.69c-.23.31.41.52.63.55a1.19,1.19,0,0,0,1.11-.31,11.707,11.707,0,0,1,2.58-2.48c.34-.24-.07-.53-.32-.61Z" fill="#020808" />
              </g>
              <path id="Path_24" data-name="Path 24" d="M342.05,284.05c5.14,3.04,10.75,4.64,10.75,11.56q-.15,24.825-.3,49.65h17.89q2.145-20.61,4.02-41.25c.86-9.44,3.48-22.71-4.74-29.45-2.87-2.35-5.59-5.15-8.31-7.78a114.917,114.917,0,0,1-8.54-9.22c-1.3-1.57-2.58-2.75-4.54-2.28a39.677,39.677,0,0,0-6.81,2.41c-1.49.66-3.26,1.24-4.38,2.56-4.44,5.27-6.38,13.13-1.56,18.87a24.309,24.309,0,0,0,6.52,4.94Z" fill="#4c6880" />
              <path id="Path_25" data-name="Path 25" d="M364.9,279.7a20.73,20.73,0,0,0,4.28,1.91c2.87.83,5.57.27,8.49.36a70.13,70.13,0,0,1,10.1,1.31c3.31.59,10.3,1.59,11.45,5.77a5.111,5.111,0,0,1-.09,2.33l-5.7,29.04c-1.38,7.02-2.69,14.06-4.41,21.01a23.725,23.725,0,0,0-.93,3.84h19.62c.46-1.8.7-4.25.94-5.23q3.66-14.8,7.57-29.53,2.46-9.255,5-18.49c1.32-4.8,3.71-11.08,1.12-15.86-1.42-2.61-4.11-4.2-6.73-5.54a109.021,109.021,0,0,0-26.51-9.17q-3.42-.735-6.87-1.3c-5.38-.88-10.95-1.03-16.23-2.21-4.13-.93-9.45.82-11.46,4.85-1.78,3.57-1.66,6.27.79,9.39a30.775,30.775,0,0,0,9.58,7.53Z" fill="#4c6880" />
              <path id="Path_26" data-name="Path 26" d="M374.38,280.9c-1.23-3.88-4.08-6.97-7.22-9.44-.91-.71-1.85-1.38-2.81-2.02a.516.516,0,0,0-.42-.06c-.07.02-.23.13-.11.21,3.32,2.22,6.56,4.85,8.6,8.34a14.987,14.987,0,0,1,1.37,3.06c.06.19.66.15.59-.08Z" fill="#6a8ea8" />
              <path id="Path_27" data-name="Path 27" d="M400.26,285.35c-.48,1.61-.89,3.25-1.22,4.9-.04.19.56.23.61,0,.33-1.62.73-3.23,1.2-4.82C400.92,285.19,400.32,285.16,400.26,285.35Z" fill="#6a8ea8" />
            </g>
            <path id="Path_28" data-name="Path 28" d="M397.78,254.38a16.969,16.969,0,0,1-2,5.58c-.33.59-.68,1.15-1.06,1.7-.79,1.16-1.23,1.94-2.63,2.31a8.995,8.995,0,0,1-4.19.13,5.547,5.547,0,0,1-2.08-.83c-.44-.31-.81-.7-1.26-.99-.86-.55-2-.31-2.97-.27-1.11.05-2.22.05-3.32.05-3.06-.01-6.12-.14-9.17.12a85.049,85.049,0,0,0-15.23,2.32c-7.04,1.92-13.53,5.42-20.39,7.91-.54.2-1.28.33-1.59-.17a1.153,1.153,0,0,1-.14-.52c-.47-3.79-1.01-7.68-.57-11.52.44-3.86,1.25-7.6,1.15-11.49-.1-4.14-.42-8.26-.76-12.38q-.585-7.035-1.17-14.08a59.925,59.925,0,0,0-.59-6.97c-.37-1.77-1.35-3.34-1.76-5.09a5.88,5.88,0,0,1,.16-3.22,6.315,6.315,0,0,0,.45-1.52c.04-.58-.19-1.16-.15-1.74.1-1.31,1.4-2.37,1.97-3.51.5-1.01,1.16-2.4,2.23-2.89a6.077,6.077,0,0,1,1.74-.32,3.105,3.105,0,0,0,1.36-.67,19.621,19.621,0,0,1,3.36-1.7,54.951,54.951,0,0,1,7.1-2.08l.24-.06c.42-.1.83-.22,1.24-.34,1.84-.54,3.63-1.22,5.5-1.63a23.051,23.051,0,0,1,13.78,1.77c1.7.74,2.99,1.96,4.71,2.72.05.02.09.04.14.06l1.5.66c1.75.77,3.51,1.52,5.26,2.28,3.88,1.69,7.93,3.91,9.89,7.83a31.526,31.526,0,0,1,2.31,7.64q2.1,9.96,4.2,19.93c.36,1.72.73,3.44,1.09,5.16.45,2.15.91,4.3,1.17,6.48.38,3.11,1.01,6.2.52,9.35Z" fill="#bee2ea" />
            <path id="Path_29" data-name="Path 29" d="M373.35,195.71c-.27.42-.56.84-.84,1.24a9.278,9.278,0,0,1-3.42,3.04,13.477,13.477,0,0,1-1.93.79,18.111,18.111,0,0,1-12.52-.6,19.7,19.7,0,0,1-4.61-2.85,12.655,12.655,0,0,1-3.76-4.81l.24-.06c.42-.1.83-.22,1.24-.34,1.84-.54,3.63-1.22,5.5-1.63a23.051,23.051,0,0,1,13.78,1.77c1.7.74,2.99,1.96,4.71,2.72.05.02.09.04.14.06l1.5.66Z" fill="#fff" />
            <path id="Path_30" data-name="Path 30" d="M371.85,195.05c-.28.47-.64.92-.96,1.36a8,8,0,0,1-2.98,2.47,11.089,11.089,0,0,1-1.69.64,16.918,16.918,0,0,1-10.93-.48,17.379,17.379,0,0,1-4.03-2.32,9.613,9.613,0,0,1-3.53-4.59c1.84-.54,3.63-1.22,5.5-1.63a23.051,23.051,0,0,1,13.78,1.77c1.7.74,2.99,1.96,4.71,2.72.05.02.09.04.14.06Z" fill="#ffa87d" />
            <g id="Group_11" data-name="Group 11">
              <path id="Path_31" data-name="Path 31" d="M351.73,192.13a2.192,2.192,0,0,0-.2.76,1.934,1.934,0,0,0,.29.99,7.076,7.076,0,0,0,3.13,2.74,12.794,12.794,0,0,0,8.06,1.24,8.687,8.687,0,0,0,3.32-.98,3,3,0,0,0,1.76-3.15c-.14-1.64.37-3.24.39-4.88a6.271,6.271,0,0,0-.03-.75c-.13-1.39-1.61-2.34-2.56-3.23a39.827,39.827,0,0,0-5.78-4.31,5.8,5.8,0,0,0-2.21-.99,2.553,2.553,0,0,0-1.79.33c-.51.44-.62,1.47-.75,2.09a22.509,22.509,0,0,1-1.47,4.92c-.79,1.69-1.43,3.44-2.14,5.17a.142.142,0,0,1-.02.06Z" fill="#ffa87d" />
              <path id="Path_32" data-name="Path 32" d="M358.63,189.1a5.778,5.778,0,0,0,3.08,3.54,7.958,7.958,0,0,0,4.72.59,5.474,5.474,0,0,0,1.64-.5c.08-1.29.39-2.57.41-3.87a15.82,15.82,0,0,0-1.57-.65,13.175,13.175,0,0,1-2.32-.87c-.11-.08-.24-.15-.36-.22a1.619,1.619,0,0,0-.18-.1c-.3-.17-.62-.32-.93-.48-.04-.02-.08-.05-.13-.07-.24-.14-.47-.31-.72-.43-.05-.02-.11-.05-.16-.07a4.576,4.576,0,0,0-2.08.06,1.759,1.759,0,0,0-1.3.94,2.948,2.948,0,0,0-.1,2.11Z" fill="#e26e61" />
              <path id="Path_33" data-name="Path 33" d="M376.81,174.94c-.73,2.64-1.42,5.28-2.1,7.92a16.39,16.39,0,0,1-3.48,6.97,7.345,7.345,0,0,1-1.24,1.12,6.984,6.984,0,0,1-3.08,1.17,5.678,5.678,0,0,1-3.26-.38c-.62-.33-1.25-.67-1.84-1.05a14.826,14.826,0,0,1-5.85-7.26,15.012,15.012,0,0,1-.67-2.38c-.16-.86-.45-1.7-.62-2.57a21.028,21.028,0,0,1-.44-5.92c.14-1.42.52-2.77.73-4.17a9.7,9.7,0,0,1,1.27-3.37,8.4,8.4,0,0,1,1.81-2.53,10.173,10.173,0,0,1,5.94-1.95,19.507,19.507,0,0,1,7.1,1.39,14.055,14.055,0,0,1,3.95,2.02c.82.64,1.02,1.72,1.5,2.6.16.3.42.53.57.84a5.022,5.022,0,0,1,.32,1.49,15.574,15.574,0,0,1-.62,6.06Z" fill="#ffa87d" />
              <path id="Path_34" data-name="Path 34" d="M353.4,179.28c.11.47.24.94.38,1.4.25.84,1.07,2.09,1.71.81a41.98,41.98,0,0,0,2.27-5.51c.29-.88.4-1.82.74-2.68.42-1.05,1.02-2.06,1.52-3.07a4.752,4.752,0,0,1,1.58-2.1,3.655,3.655,0,0,1,2.06-.45,37.507,37.507,0,0,1,4.52.87,11.086,11.086,0,0,0,6.4-.88c.39-.18,2.23,5.79,2.39,6.28a.638.638,0,0,0,.13.26c.54.52,1.28-1.38,1.36-1.68a8.193,8.193,0,0,0,.23-2.42,9.262,9.262,0,0,0-3.42-7.19,16.792,16.792,0,0,0-14.08-3.02c-3.19.76-6.2,2.05-7.46,5.32a21.65,21.65,0,0,0-1.1,7.37,27.622,27.622,0,0,0,.77,6.66Z" fill="#824a2b" />
              <path id="Path_35" data-name="Path 35" d="M357.8,174.08c-.06-.06-.12-.12-.19-.18a2.339,2.339,0,0,0-2.27-.32c-3.14,1.29-.76,6.38,1.17,7.78a1.389,1.389,0,0,0,1,.34c.89-.16.73-1.14.78-1.74.04-.57.22-1.11.28-1.66a9.023,9.023,0,0,0,0-1.8,4.354,4.354,0,0,0-.78-2.43Z" fill="#ffa87d" />
              <path id="Path_36" data-name="Path 36" d="M373.72,173.9a3.773,3.773,0,0,1,2.33,1.7c.22.41.3,1.2-.44.88a1.759,1.759,0,0,1-.45-.32,7.263,7.263,0,0,0-2.21-1.1,4.256,4.256,0,0,1-1.16-.43c-.5-.36.16-.86.57-.93a2.342,2.342,0,0,1,.79.05c.19.04.39.09.58.15Z" fill="#824a2b" />
              <path id="Path_37" data-name="Path 37" d="M363.86,172.04a5.848,5.848,0,0,0-2.06.4,5.142,5.142,0,0,0-.95.44c-.22.14-.81.7-.21.74a4.608,4.608,0,0,0,1.1-.14,18.839,18.839,0,0,1,4.62.12.748.748,0,0,0,.21-.02.39.39,0,0,0,.21-.31.875.875,0,0,0-.36-.78,1.973,1.973,0,0,0-.82-.33,8.589,8.589,0,0,0-1.75-.12Z" fill="#824a2b" />
              <path id="Path_38" data-name="Path 38" d="M371.22,177.6c.12-.45.37-.99.91-1.03a.713.713,0,0,1,.66.3.663.663,0,0,1,.09.19c.03.05.05.1.07.14a1.327,1.327,0,0,1,0,.98.957.957,0,0,1-.42.67.979.979,0,0,1-1-.09,1.012,1.012,0,0,1-.29-1.16Z" />
              <path id="Path_39" data-name="Path 39" d="M361.34,176.32c.1-.48.32-1.05.87-1.13a.866.866,0,0,1,.9.48,1.664,1.664,0,0,1,.1.54,1.55,1.55,0,0,1-.44,1.32.76.76,0,0,1-.83.07,1.059,1.059,0,0,1-.59-1.28Z" />
              <path id="Path_40" data-name="Path 40" d="M370.11,175.36a.375.375,0,0,0-.35.19,7.764,7.764,0,0,0-.45,4.69c.08.44.17.87.28,1.3a8.462,8.462,0,0,1,.31,1.2c.03.41-.32.66-.66.79a1.6,1.6,0,0,1-1.12.03.47.47,0,0,0-.43.09c-.09.09-.08.2.05.24a2.641,2.641,0,0,0,2.34-.4.973.973,0,0,0,.44-.92,12.535,12.535,0,0,0-.38-1.46,8.344,8.344,0,0,1,.24-5.6c.06-.13-.18-.17-.26-.16Z" fill="#e26e61" />
              <path id="Path_41" data-name="Path 41" d="M369.69,186.11a3.72,3.72,0,0,1-2.79.31,4,4,0,0,1-2.12-1.58.407.407,0,0,0-.36-.14c-.06,0-.3.06-.23.17a4.628,4.628,0,0,0,5.91,1.5c.31-.16-.23-.35-.41-.25Z" fill="#e26e61" />
              <path id="Path_42" data-name="Path 42" d="M374.81,163.47c-.1-.18-.7-.14-.59.06a4.042,4.042,0,0,1,.28,3.28c-.08.23.52.3.58.11a4.221,4.221,0,0,0-.27-3.44Z" fill="#a6673e" />
              <path id="Path_43" data-name="Path 43" d="M372.27,164.68a4.274,4.274,0,0,1-3.67,1.62c-.09,0-.31.01-.31.14s.21.17.3.17a4.955,4.955,0,0,0,4.27-1.82c.13-.18-.46-.28-.58-.11Z" fill="#a6673e" />
              <path id="Path_44" data-name="Path 44" d="M368.03,162.03a.451.451,0,0,0-.42.06,4.709,4.709,0,0,1-2.04,1.15c-.09.02-.21.12-.11.21a.511.511,0,0,0,.42.06,5.122,5.122,0,0,0,2.26-1.26c.1-.09-.01-.18-.11-.21Z" fill="#a6673e" />
              <path id="Path_45" data-name="Path 45" d="M357.24,162.55a.48.48,0,0,0-.42.04,5.282,5.282,0,0,0-2.42,4.06c-.01.21.59.24.61.03a5.08,5.08,0,0,1,2.33-3.91c.12-.08-.02-.19-.1-.22Z" fill="#a6673e" />
              <path id="Path_46" data-name="Path 46" d="M357.42,164.47a.4.4,0,0,0-.38.09,5.14,5.14,0,0,0-.92,2.5c-.02.21.59.25.61.03a4.893,4.893,0,0,1,.9-2.42c.08-.11-.13-.19-.2-.2Z" fill="#a6673e" />
              <path id="Path_47" data-name="Path 47" d="M377.99,168.9c-.08-.19-.68-.16-.59.06a2.55,2.55,0,0,1,.18,1.28c0,.05.05.09.08.11a.385.385,0,0,0,.21.05c.1,0,.3-.01.31-.14a2.913,2.913,0,0,0-.19-1.37Z" fill="#a6673e" />
            </g>
            <g id="Group_12" data-name="Group 12">
              <path id="Path_48" data-name="Path 48" d="M384.92,273.91a8.672,8.672,0,0,1-.27,1.42,2.176,2.176,0,0,1-.76,1.23.925.925,0,0,1-1.29-.21,1.566,1.566,0,0,1-1.18,1.24,1.539,1.539,0,0,1-1.57-.66,2.519,2.519,0,0,1-1.38.92c-.37.06-.36.07-.64-.17-.06-.05-.5-.64-.41-.71a3.165,3.165,0,0,1-1.15.66,1.084,1.084,0,0,1-1.19-.38,1.727,1.727,0,0,1-.05-1.23,17.009,17.009,0,0,0-.06-6.78,1.608,1.608,0,0,0-.26-.68c-.69-.89-2.34-1.13-3.32-1.53a29.843,29.843,0,0,1-3.93-2.13c-5.93-3.56-12.28-6.34-18.51-9.31a73.7,73.7,0,0,1-8.19-4.23c-2.48-1.59-3.74-4.52-4.77-7.22a58.536,58.536,0,0,1-1.78-5.83c-2.12-7.94-4.25-15.92-5.13-24.09-.26-2.46-.8-6.19.47-8.48.98-1.77,3.58-2.74,5.48-2.9a10.05,10.05,0,0,1,8.67,3.59c2.26,2.94,2.1,6.67,2.71,10.1q1.125,6.27,1.93,12.6c.08.59.15,1.18.22,1.77.37,3.05.42,6.74,1.97,9.47a5.948,5.948,0,0,0,2.07,2.01c.45.29.92.55,1.37.81,2.09,1.2,4.1,2.56,6.1,3.91q8.145,5.5,16.3,11.01c3.08,2.08,6.43,5.26,7.67,8.84a16.543,16.543,0,0,1,.63,2.7,15.676,15.676,0,0,1,.27,4.26Z" fill="#ffa87d" />
              <path id="Path_49" data-name="Path 49" d="M350.74,241.36a7.081,7.081,0,0,0-2.67-.32c-.09,0-.3.03-.3.16s.22.16.3.16a9.935,9.935,0,0,1,1.22.01,4.961,4.961,0,0,1,1.14.26.451.451,0,0,0,.42-.06c.1-.1-.02-.18-.11-.21Z" fill="#e26e61" />
            </g>
            <g id="Group_13" data-name="Group 13">
              <path id="Path_50" data-name="Path 50" d="M374.6,274.77v-.06c.01-.95.55-1.3,1.26-1.86-.86.68-3.19.73-2.39-.95a3.571,3.571,0,0,1,.97-1.24,3.073,3.073,0,0,1-1.47.22.84.84,0,0,1-.64-.29.911.911,0,0,1-.11-.61,3.563,3.563,0,0,1,.37-1.28.669.669,0,0,1-.92.09,1.084,1.084,0,0,1-.36-.92c.08-1.76,1.33-3.43,2.43-4.73.76-.9,2.04-1.9,2.01-3.19,0-.46-.21-.9-.23-1.37a.782.782,0,0,1,.19-.66,2.093,2.093,0,0,1,.94-.28c1.25-.23,2.54-.33,3.8-.47a8.248,8.248,0,0,0,1.22-.08c.52-.15.85-.63,1.32-.88a2.823,2.823,0,0,1,3.04.69,6.174,6.174,0,0,1,2.04,3.72c.4,2.65-1.17,4.44-2.39,6.59a24.781,24.781,0,0,1-3.23,4.63,12.775,12.775,0,0,1-3.73,2.85c-.77.38-3.34,1.77-3.98.71a1.227,1.227,0,0,1-.14-.62Z" fill="#ffa87d" />
              <path id="Path_51" data-name="Path 51" d="M376.03,257.89c.03-.2-.57-.23-.61,0-.13.79.22,1.58.08,2.37a2.925,2.925,0,0,1-.54,1.07l-.78,1.17c-1.02,1.54-2.03,3.07-3.05,4.61-.12.18.47.26.59.08,1.03-1.56,2.07-3.13,3.1-4.69l.78-1.17a2.935,2.935,0,0,0,.51-1.07c.14-.79-.21-1.58-.08-2.37Z" fill="#e26e61" />
              <path id="Path_52" data-name="Path 52" d="M377.98,267.68a.384.384,0,0,0-.37.11,11.539,11.539,0,0,1-2.98,2.68c-.1.06-.11.16,0,.22a.5.5,0,0,0,.43,0,11.911,11.911,0,0,0,3.14-2.82c.08-.11-.15-.18-.21-.19Z" fill="#e26e61" />
              <path id="Path_53" data-name="Path 53" d="M379.6,270.2a.384.384,0,0,0-.37.11,8.564,8.564,0,0,1-3.66,2.59c-.1.04-.2.11-.11.21a.481.481,0,0,0,.42.06,9.147,9.147,0,0,0,3.94-2.78c.09-.11-.15-.18-.21-.19Z" fill="#e26e61" />
              <path id="Path_54" data-name="Path 54" d="M383.23,270.13c-2.13,2.46-4.66,4.89-7.94,5.64-.11.02-.19.12-.11.21s.3.08.42.06a10.978,10.978,0,0,0,1.38-.42v.75c0,.05.05.09.09.11a.545.545,0,0,0,.22.05.357.357,0,0,0,.22-.05c.04-.02.09-.06.09-.11v-.88a.269.269,0,0,0-.06-.09,13.612,13.612,0,0,0,1.72-.94,5.718,5.718,0,0,1,.22,1.97c-.01.21.6.22.61,0a6.147,6.147,0,0,0-.28-2.17c-.01-.05-.1-.08-.14-.09a19.347,19.347,0,0,0,2.3-1.94,17.667,17.667,0,0,1,.46,3.83c0,.22.61.22.61,0a18.052,18.052,0,0,0-.57-4.26c0-.02-.02-.04-.03-.06.46-.47.9-.96,1.32-1.45.19-.21-.4-.31-.53-.16Z" fill="#e26e61" />
              <path id="Path_55" data-name="Path 55" d="M376.33,264.96a.384.384,0,0,0-.37.11,21.337,21.337,0,0,1-3.48,3.5c-.11.09.02.19.11.21a.481.481,0,0,0,.42-.06,21.412,21.412,0,0,0,3.54-3.58c.08-.11-.15-.18-.21-.19Z" fill="#e26e61" />
            </g>
            <g id="Group_14" data-name="Group 14">
              <path id="Path_56" data-name="Path 56" d="M393.59,240.78a.481.481,0,0,0-.42-.06c-1.57.42-3.14.9-4.67,1.47a4.765,4.765,0,0,0-2.97,2.3v.02c-.19-3.93-.4-7.86-.53-11.79-.07-2.11-.07-4.21.06-6.32s.37-4.2.66-6.29c.33-2.34.72-4.67,1.12-6.99.03-.2-.57-.23-.61,0-.7,4.14-1.41,8.3-1.72,12.49a103.827,103.827,0,0,0,.13,12.72q.165,3.6.33,7.21c0,.08.08.13.18.15a8.033,8.033,0,0,1-.28.87,14.831,14.831,0,0,1-1.06,1.96,8.314,8.314,0,0,0-.86,1.93,14.72,14.72,0,0,0-.37,1.87,8.141,8.141,0,0,1-1.35,4.13c-.09.11.15.18.21.19a.384.384,0,0,0,.37-.11,6.994,6.994,0,0,0,1.26-3.47,12.5,12.5,0,0,1,.94-3.77c.33-.65.74-1.26,1.08-1.9a10.413,10.413,0,0,0,.76-2.04,3.672,3.672,0,0,1,.92-1.74,4.955,4.955,0,0,1,1.63-.99,40.606,40.606,0,0,1,5.08-1.63c.11-.03.19-.11.11-.21Z" fill="#6a8ea8" />
              <path id="Path_57" data-name="Path 57" d="M396.28,247.42l-2.31-1.86a8.051,8.051,0,0,0-2.15-1.31,6.444,6.444,0,0,0-4.75.1c-.12.05-.1.16,0,.22a.536.536,0,0,0,.43,0,5.433,5.433,0,0,1,4.26.06,9.406,9.406,0,0,1,1.98,1.33c.67.54,1.35,1.08,2.02,1.62a.481.481,0,0,0,.42.06c.08-.03.22-.12.11-.21Z" fill="#6a8ea8" />
              <path id="Path_58" data-name="Path 58" d="M345.41,204.01a11.745,11.745,0,0,0-4.69-5.47,11.111,11.111,0,0,0-3.83-1.36c-.1-.02-.33,0-.37.11s.13.18.21.19a10.232,10.232,0,0,1,5.99,3.27,15.317,15.317,0,0,1,3.21,6.69c.36,1.5.6,3.02.82,4.54.03.22.64.2.61,0A30.369,30.369,0,0,0,345.4,204Z" fill="#6a8ea8" />
              <path id="Path_59" data-name="Path 59" d="M335.15,254.5a52.869,52.869,0,0,1-2.25-9.93c-.03-.22-.63-.2-.61,0a53.045,53.045,0,0,0,2.27,10.02c.06.19.66.15.59-.08Z" fill="#6a8ea8" />
              <path id="Path_60" data-name="Path 60" d="M354.53,261.97c-.05-.12-.28-.13-.37-.11a112.5,112.5,0,0,0-11.89,2.74c-1.12.32-2.23.67-3.33,1.02-.1.03-.2.11-.11.21s.31.09.42.06a110.064,110.064,0,0,1,11.7-3.09c1.12-.23,2.25-.44,3.38-.64.09-.02.26-.07.21-.19Z" fill="#6a8ea8" />
              <path id="Path_61" data-name="Path 61" d="M379.89,238.69a58.924,58.924,0,0,1-5.16,8.99c-.57.81-1.15,1.61-1.76,2.39-.08.11.15.18.21.19a.384.384,0,0,0,.37-.11,59.638,59.638,0,0,0,5.61-8.72c.46-.88.9-1.76,1.31-2.66.1-.21-.5-.27-.59-.08Z" fill="#6a8ea8" />
              <path id="Path_62" data-name="Path 62" d="M373.49,235.23l-2.76,3.12c-.19.21.4.3.53.16l2.76-3.12C374.21,235.18,373.62,235.09,373.49,235.23Z" fill="#6a8ea8" />
              <path id="Path_63" data-name="Path 63" d="M340.03,202.15a8.234,8.234,0,0,0-6.98-2.18c-.09.01-.26.07-.21.19s.28.12.37.11a7.435,7.435,0,0,1,6.29,2.04C339.64,202.45,340.23,202.35,340.03,202.15Z" fill="#6a8ea8" />
              <path id="Path_64" data-name="Path 64" d="M388.93,255.73a.391.391,0,0,0-.37-.11c-.06,0-.3.08-.21.19a7.546,7.546,0,0,1,1.34,6.98c-.07.23.53.27.59.08a7.745,7.745,0,0,0-1.34-7.14Z" fill="#6a8ea8" />
            </g>
          </g>
        </g>
        <g id="Group_29" data-name="Group 29">
          <g id="Group_17" data-name="Group 17">
            <path id="Path_65" data-name="Path 65" d="M330.13,211.22c-.19.32-.4.63-.61.93a.488.488,0,0,1-.24.21c-.26.06-.35-.25-.33-.44a3.063,3.063,0,0,1,.55-1.36c.2-.32.43-.76.88-.72.2.01.67.13.8.94a10.6,10.6,0,0,1,.13,2.32,12.6,12.6,0,0,1-.31,2.53c-.24.96-.52,1.91-.85,2.85-.03.09-.1.2-.19.17a2.544,2.544,0,0,1,.06-1.82,13.408,13.408,0,0,0,.27-1.54c.06-.5.02-1.03.09-1.53a6.141,6.141,0,0,0-.09-2.83,2.6,2.6,0,0,1-.17.28Z" fill="#e26e61" />
            <path id="Path_66" data-name="Path 66" d="M332.62,221.56c-.1.97-.06,1.95-.11,2.93a10.452,10.452,0,0,1-.15,1.48c-.05.27-.13,1.2-.49,1.24a.256.256,0,0,1-.25-.22.641.641,0,0,1,.04-.36,10.437,10.437,0,0,0,.18-2.79c-.01-.47-.03-.94-.03-1.41a5.785,5.785,0,0,0,.01-1.1c-.08-.42.05-.92,0-1.36-.03-.23-.18-1.13-.52-.57a2.158,2.158,0,0,0-.27.69,4.668,4.668,0,0,1-.24,1.18c-.05.09-.14.19-.24.15a.219.219,0,0,1-.09-.1,2.088,2.088,0,0,1-.07-1.24,3.519,3.519,0,0,1,.29-1.02,1.274,1.274,0,0,1,.98-.73.582.582,0,0,1,.4.08.592.592,0,0,1,.25.32,5.645,5.645,0,0,1,.29,2.85Z" fill="#e26e61" />
            <path id="Path_67" data-name="Path 67" d="M302.53,223.84c-1.48-.06-2.95-.14-4.42-.25a.778.778,0,0,1-.42-.11.841.841,0,0,1-.24-.34q-1.395-2.88-2.63-5.83a12.731,12.731,0,0,1-1.06-2.83,4.6,4.6,0,0,0-.72-2.23.726.726,0,0,0-1-.3c-1.86.59-3.72,1.17-5.59,1.76a36.671,36.671,0,0,0-3.69,1.3,3.884,3.884,0,0,0-1.49.95,1.129,1.129,0,0,0-.31.66,1.648,1.648,0,0,0,.17.64q1.515,3.48,3.04,6.94a61.756,61.756,0,0,0,3.34,6.84,5.927,5.927,0,0,0,2.07,2.44,7.879,7.879,0,0,0,2.7.71,20.137,20.137,0,0,0,4.18,0c1.58-.12,3.15-.25,4.72-.4q8.43-.795,16.78-2.17c2.69-.44,5.53-1.32,8.25-1.47a7.291,7.291,0,0,0,3.4-.82c.16-.09.31-.19.47-.3l.36-.24a3.225,3.225,0,0,0,1.06-1.09,5.754,5.754,0,0,0,.6-3.14,17.418,17.418,0,0,1,.13-3.06,5.4,5.4,0,0,0-.26-2.65.3.3,0,0,0-.09-.13.194.194,0,0,0-.15-.02c-.46.05-.74.52-.9.95a6.493,6.493,0,0,0-.3,1.23c-.05.41-.06.82-.14,1.23a3.626,3.626,0,0,1-.67,1.53s-.41-1.17-.43-1.32a9,9,0,0,1,.53-3.7c.66-2.52,1.43-5.17.98-7.79-.05-.26-.17-.59-.43-.61-.24-.02-.4.22-.52.43q-1.47,2.67-2.84,5.39a7.19,7.19,0,0,0-1.3,4.85,28.957,28.957,0,0,1,.13,3.35.394.394,0,0,1-.09.28.414.414,0,0,1-.29.08c-1.67.05-3.32-.12-5-.15-2.01-.03-4.02-.09-6.04-.16-3.96-.25-7.93-.31-11.89-.48Z" fill="#ffa87d" />
            <path id="Path_68" data-name="Path 68" d="M277.66,218.14a1.793,1.793,0,0,0,1.25-.01c2.92-.81,5.84-1.59,8.76-2.37,1.48-.4,2.96-.79,4.44-1.2.55-.15,2.09-.26,2.25-.76.11-.36-.25-1.22-.33-1.6-.11-.55-.23-1.09-.34-1.64l-1.35-6.42c-.29-1.4-.42-2.88-.78-4.24-.38-1.45-.82-2.89-1.2-4.35-.6-2.3-.91-4.74-1.36-7.09a12.666,12.666,0,0,0-1.63-4.8,4.661,4.661,0,0,0-3.91-2.21,12.853,12.853,0,0,0-6.58.65,9.431,9.431,0,0,0-3.22,2.53,12.965,12.965,0,0,0-3.02,7.43c-.3,4.35,1.75,8.82,2.98,12.92.77,2.59,1.55,5.18,2.31,7.77.46,1.54.78,3.1,1.25,4.64a1.364,1.364,0,0,0,.31.61.61.61,0,0,0,.16.12Z" fill="#f8b8b9" />
            <path id="Path_69" data-name="Path 69" d="M326.86,226.95a1.416,1.416,0,0,1-.55-.96c-.09-.44-.15-.89-.2-1.33-.01-.13-.2-.16-.3-.16-.08,0-.32.03-.3.16a10.085,10.085,0,0,0,.23,1.46,1.653,1.653,0,0,0,.7,1.06.5.5,0,0,0,.43,0c.12-.06.11-.16,0-.22Z" fill="#e26e61" />
            <path id="Path_70" data-name="Path 70" d="M329.75,211.03q-1.26,3.9-2.19,7.89c-.04.19.56.22.61,0,.61-2.63,1.33-5.24,2.17-7.81C330.42,210.88,329.81,210.84,329.75,211.03Z" fill="#e26e61" />
          </g>
          <g id="Group_22" data-name="Group 22">
            <g id="Group_19" data-name="Group 19">
              <path id="Path_71" data-name="Path 71" d="M251.8,346.3a11.286,11.286,0,0,1-.64-4c.1-1.39-.05-2.43-1.5-2.99a10.123,10.123,0,0,0-4.24-.76c-1.36.09-3.1.69-3.13,2.24a37.2,37.2,0,0,1-.54,7.15c-.2.92-.49,1.76.34,2.48a3.285,3.285,0,0,0,2.23.53,28.165,28.165,0,0,0,4.67-.61c1.45-.31,3.86-.32,3.3-2.38-.15-.54-.32-1.1-.49-1.66Z" fill="#ffa87d" />
              <g id="Group_18" data-name="Group 18">
                <path id="Path_72" data-name="Path 72" d="M239.6,355.34l18.05.06h8.63s.04-.05.06-.08a1.4,1.4,0,0,0-.09-1.75,7.318,7.318,0,0,0-2.54-1.86c-1.17-.57-2.42-.94-3.64-1.39a30.556,30.556,0,0,1-4.2-1.91c-1.17-.65-2.34-1.75-3.66-2.06a1.816,1.816,0,0,0-1.37.17,4.561,4.561,0,0,0-.96.9,6.273,6.273,0,0,1-2.46,1.72,5.95,5.95,0,0,1-4.72-.66,1.683,1.683,0,0,0-1.13-.38,1.3,1.3,0,0,0-.78.71,9.749,9.749,0,0,0-1.29,4.66q-.015.645.03,1.29a5.508,5.508,0,0,0,.06.57Z" fill="#fff" />
                <path id="Path_73" data-name="Path 73" d="M239.6,355.34l18.05.06h8.63s.04-.05.06-.08a1.4,1.4,0,0,0-.09-1.75l-26.75-.09q-.015.645.03,1.29a5.508,5.508,0,0,0,.06.57Z" fill="#020808" />
                <path id="Path_74" data-name="Path 74" d="M260.34,351.31c-.12-.29-.51-.38-.79-.49a33.14,33.14,0,0,1-4.43-2.19c-.8-.47-1.58-.98-2.34-1.51a.471.471,0,0,0-.43-.06c-.09.03-.24.14-.11.22a33.344,33.344,0,0,0,4.53,2.72c.78.39,1.57.74,2.37,1.07a1.67,1.67,0,0,1,.54.25c.14.16,0,.39-.09.54-.15.25-1,1.13-.79,1.44.33.48.89-.44.97-.64a4.158,4.158,0,0,1,.28-.51c.15-.24.4-.54.28-.84Z" fill="#6a8ea8" />
                <path id="Path_75" data-name="Path 75" d="M254.94,347.28a.652.652,0,0,0-.24-.02.355.355,0,0,0-.19.08c-.33.34-.67.68-1,1.02-.1.1,0,.2.11.23a.652.652,0,0,0,.24.02.438.438,0,0,0,.19-.07c.33-.34.67-.68,1-1.02.1-.1,0-.19-.11-.23Z" fill="#020808" />
                <path id="Path_76" data-name="Path 76" d="M256.33,348.11a.471.471,0,0,0-.43.06,8.857,8.857,0,0,0-.89.95c-.03.04-.06.08-.03.13s.09.08.14.1a.652.652,0,0,0,.24.02.326.326,0,0,0,.19-.08,8.906,8.906,0,0,1,.9-.95c.1-.09-.01-.2-.11-.23Z" fill="#020808" />
                <path id="Path_77" data-name="Path 77" d="M258,348.96a.735.735,0,0,0-.14-.1.652.652,0,0,0-.24-.02.326.326,0,0,0-.19.08c-.24.29-.48.59-.71.88-.03.04-.06.08-.03.13s.09.08.14.1a.652.652,0,0,0,.24.02.326.326,0,0,0,.19-.08c.24-.29.48-.59.71-.88C258,349.05,258.03,349.02,258,348.96Z" fill="#020808" />
                <path id="Path_78" data-name="Path 78" d="M259.62,349.53a.471.471,0,0,0-.43.06,4.915,4.915,0,0,0-.91,1.07c-.03.04,0,.1.03.13a.455.455,0,0,0,.19.08c.13.01.31,0,.38-.12l.18-.27a1.473,1.473,0,0,1,.1-.13l.02-.02s.02-.03.02-.02c.02-.02.03-.04.05-.06a4.254,4.254,0,0,1,.47-.48c.11-.09-.01-.2-.11-.23Z" fill="#020808" />
              </g>
            </g>
            <g id="Group_21" data-name="Group 21">
              <path id="Path_79" data-name="Path 79" d="M239.2,346.3a11.286,11.286,0,0,1-.64-4c.1-1.39-.05-2.43-1.5-2.99a10.123,10.123,0,0,0-4.24-.76c-1.36.09-3.1.69-3.13,2.24a37.2,37.2,0,0,1-.54,7.15c-.2.92-.49,1.76.34,2.48a3.285,3.285,0,0,0,2.23.53,28.165,28.165,0,0,0,4.67-.61c1.45-.31,3.86-.32,3.3-2.38-.15-.54-.32-1.1-.49-1.66Z" fill="#ffa87d" />
              <g id="Group_20" data-name="Group 20">
                <path id="Path_80" data-name="Path 80" d="M227,355.34l18.05.06h8.63s.04-.05.06-.08a1.4,1.4,0,0,0-.09-1.75,7.318,7.318,0,0,0-2.54-1.86c-1.17-.57-2.42-.94-3.64-1.39a30.557,30.557,0,0,1-4.2-1.91c-1.17-.65-2.34-1.75-3.66-2.06a1.816,1.816,0,0,0-1.37.17,4.561,4.561,0,0,0-.96.9,6.273,6.273,0,0,1-2.46,1.72,5.95,5.95,0,0,1-4.72-.66,1.683,1.683,0,0,0-1.13-.38,1.3,1.3,0,0,0-.78.71,9.749,9.749,0,0,0-1.29,4.66q-.015.645.03,1.29a5.508,5.508,0,0,0,.06.57Z" fill="#fff" />
                <path id="Path_81" data-name="Path 81" d="M227,355.34l18.05.06h8.63s.04-.05.06-.08a1.4,1.4,0,0,0-.09-1.75l-26.75-.09q-.015.645.03,1.29a5.508,5.508,0,0,0,.06.57Z" fill="#020808" />
                <path id="Path_82" data-name="Path 82" d="M247.74,351.31c-.12-.29-.51-.38-.79-.49a33.141,33.141,0,0,1-4.43-2.19c-.8-.47-1.58-.98-2.34-1.51a.471.471,0,0,0-.43-.06c-.09.03-.24.14-.11.22a33.345,33.345,0,0,0,4.53,2.72c.78.39,1.57.74,2.37,1.07a1.67,1.67,0,0,1,.54.25c.14.16,0,.39-.09.54-.15.25-1,1.13-.79,1.44.33.48.89-.44.97-.64a4.16,4.16,0,0,1,.28-.51c.15-.24.4-.54.28-.84Z" fill="#6a8ea8" />
                <path id="Path_83" data-name="Path 83" d="M242.34,347.28a.652.652,0,0,0-.24-.02.355.355,0,0,0-.19.08c-.33.34-.67.68-1,1.02-.1.1,0,.2.11.23a.652.652,0,0,0,.24.02.438.438,0,0,0,.19-.07c.33-.34.67-.68,1-1.02.1-.1,0-.19-.11-.23Z" fill="#020808" />
                <path id="Path_84" data-name="Path 84" d="M243.74,348.11a.471.471,0,0,0-.43.06,8.857,8.857,0,0,0-.89.95c-.03.04-.06.08-.03.13s.09.08.14.1a.652.652,0,0,0,.24.02.326.326,0,0,0,.19-.08,8.909,8.909,0,0,1,.9-.95c.1-.09-.01-.2-.11-.23Z" fill="#020808" />
                <path id="Path_85" data-name="Path 85" d="M245.4,348.96a.735.735,0,0,0-.14-.1.652.652,0,0,0-.24-.02.326.326,0,0,0-.19.08c-.24.29-.48.59-.71.88-.03.04-.06.08-.03.13s.09.08.14.1a.652.652,0,0,0,.24.02.326.326,0,0,0,.19-.08c.24-.29.48-.59.71-.88C245.4,349.05,245.43,349.02,245.4,348.96Z" fill="#020808" />
                <path id="Path_86" data-name="Path 86" d="M247.02,349.53a.471.471,0,0,0-.43.06,4.915,4.915,0,0,0-.91,1.07c-.03.04,0,.1.03.13a.455.455,0,0,0,.19.08c.13.01.31,0,.38-.12l.18-.27a1.473,1.473,0,0,1,.1-.13l.02-.02s.02-.03.02-.02c.02-.02.03-.04.05-.06a5.325,5.325,0,0,1,.47-.48c.11-.09-.01-.2-.11-.23Z" fill="#020808" />
              </g>
              <path id="Path_87" data-name="Path 87" d="M253.94,353.33a7.541,7.541,0,0,0-2.85-1.86c-1.24-.52-2.5-1-3.74-1.49a.536.536,0,0,0-.43,0c-.1.05-.13.17,0,.22,1.22.48,2.45.95,3.67,1.46a7.633,7.633,0,0,1,2.84,1.83c.13.15.71.06.53-.16Z" fill="#6a8ea8" />
            </g>
            <path id="Path_88" data-name="Path 88" d="M231.6,255.11c1.97,7.9,4.88,15.63,7.37,23.37,2.4,7.45,5.76,14.83,4.03,22.71-.74,3.39-1.98,6.69-2.17,10.18-.19,3.61-.78,7.26-1.17,10.89a167.49,167.49,0,0,0-1.29,22.38h18.62c.53-.02,1.06-.03,1.6-.03,1-4.4,1.12-8.78,1.7-13.18.6-4.58,1.46-9.15,2.3-13.7,1.24-6.71,3.28-13.11,3.68-19.96a67.287,67.287,0,0,0-2.07-19.57q-5.16-21.24-10.33-42.49c-.73-2.99-1.57-5.47-4.62-6.55a26,26,0,0,0-11.83-1.35c-2.26.28-6.31,1.47-7.71,3.34a7.628,7.628,0,0,0-1.07,2.54c-.96,3.46-.33,6.39.24,9.89.63,3.92,1.76,7.68,2.72,11.52Z" fill="#f8b8b9" />
            <path id="Path_89" data-name="Path 89" d="M219,255.11c1.97,7.9,4.88,15.63,7.37,23.37,2.4,7.45,5.76,14.83,4.03,22.71-.74,3.39-1.98,6.69-2.17,10.18-.19,3.61-.78,7.26-1.17,10.89a167.49,167.49,0,0,0-1.29,22.38h18.62c.53-.02,1.06-.03,1.6-.03,1-4.4,1.12-8.78,1.7-13.18.6-4.58,1.46-9.15,2.3-13.7,1.41-7.65,3.97-15.46,4.48-23.21a58.828,58.828,0,0,0-.97-12.62c-2.07-13.93-6.06-27.46-8.51-41.37-.49-2.79-1.02-5.73-2.83-7.9a12.373,12.373,0,0,0-5.52-3.46,26,26,0,0,0-11.83-1.35c-2.26.28-6.31,1.47-7.71,3.34a7.628,7.628,0,0,0-1.07,2.54c-.96,3.46-.33,6.39.24,9.89.63,3.92,1.76,7.68,2.72,11.52Z" fill="#f8b8b9" />
          </g>
          <path id="Path_90" data-name="Path 90" d="M278.35,176.12s-.09-.03-.13-.04a8.652,8.652,0,0,0-3.17-.17,39.112,39.112,0,0,0-11.88,2.34,112.387,112.387,0,0,0-10.65,5.02,67.839,67.839,0,0,0-28.35,28.07,100.2,100.2,0,0,0-5.8,13.62,53.878,53.878,0,0,0-2.36,7.04c-.47,2.32-.86,4.68-1.43,7,2.92,1.2,6.37.69,9.52.7,3.63.01,7.25.04,10.88.08q5.31.06,10.62.16c2.05.04,4.11.17,6.16.24,1.97.07,4.19-.19,5.97.33q1.125-9.885,2.64-19.71a5.313,5.313,0,0,1,2.39-4.3,42.594,42.594,0,0,1,6.91-4.2c2.64-1.44,5.48-2.51,8.09-4.03a26.943,26.943,0,0,0,4.36-3.14c4.62-4.05,7.91-10.12,7.12-16.21a11.208,11.208,0,0,0-3.36-6.89c-1.22-1.12-2.64-2.03-3.9-3.11-1.16-.99-2.13-2.32-3.63-2.81Z" fill="#f8b8b9" />
          <g id="Group_25" data-name="Group 25">
            <path id="Path_91" data-name="Path 91" d="M283.23,214.03c-.16-2.19-.1-4.4-1.06-6.44a6.551,6.551,0,0,0-4.87-3.7,8.585,8.585,0,0,0-7.07,2.16c-1.98,1.76-2.17,5.56-1.96,8a36.062,36.062,0,0,0,2,8.21c.48,1.48.97,2.95,1.45,4.43.7,2.13,1.84,6.15,4.49,6.48,2.25.28,5.33-.94,6.34-3.12a10.424,10.424,0,0,0,1.13-3.94,95.441,95.441,0,0,0-.45-12.07Z" fill="#ffa87d" />
            <path id="Path_92" data-name="Path 92" d="M313.81,218.05c-.03-.06-.05-.11-.08-.17a4.378,4.378,0,0,0-1.31-1.64c-1.34-.94-3.16-.65-4.76-.29-.37.08-.74.16-1.11.25-4.12.92-8.23,1.94-12.36,2.83-2.06.45-4.13.87-6.21,1.24-.96.17-1.92.32-2.86.53a19.61,19.61,0,0,0-2.63.48,14.424,14.424,0,0,0-2.24,1.08,14.823,14.823,0,0,0-4.01,3.6c-1.54,1.96-3.11,6.81.32,7.76a6.861,6.861,0,0,0,2.99-.04,80.341,80.341,0,0,0,11.67-3.21c.81-.27,1.62-.56,2.43-.85a146.932,146.932,0,0,0,19.73-8.82,2.208,2.208,0,0,0,.77-.58c.37-.52-.08-1.64-.32-2.16Z" fill="#ffa87d" />
            <path id="Path_93" data-name="Path 93" d="M267.06,217.04a1.734,1.734,0,0,0,1.24.15q7.635-1.035,15.28-2.08c.2-4.2-.34-8.52-.57-12.72l-.72-13.23a12.582,12.582,0,0,0-.97-4.97,4.675,4.675,0,0,0-3.57-2.72,12.881,12.881,0,0,0-6.6-.24,9.3,9.3,0,0,0-3.53,2.08,12.989,12.989,0,0,0-3.99,6.96c-.88,4.27.55,8.98,1.22,13.21q.63,4,1.25,8.01c.25,1.59.36,3.18.61,4.76a1.438,1.438,0,0,0,.22.65.926.926,0,0,0,.14.14Z" fill="#f8b8b9" />
            <g id="Group_24" data-name="Group 24">
              <g id="Group_23" data-name="Group 23">
                <rect id="Rectangle_28-2" data-name="Rectangle 28" width="3.48" height="1.54" transform="matrix(0.992, -0.123, 0.123, 0.992, 320.349, 207.781)" fill="#3a255d" />
                <path id="Path_94" data-name="Path 94" d="M317.95,209.86l-.24-1.96,6.32-.79.24,1.96Zm.25-1.58.14,1.09,5.45-.68-.14-1.09Z" fill="#6a8ea8" />
                <rect id="Rectangle_29" data-name="Rectangle 29" width="5.71" height="0.22" transform="translate(325.446 207.833) rotate(-7.13)" fill="#3a255d" />
                <rect id="Rectangle_30" data-name="Rectangle 30" width="2.86" height="0.44" transform="matrix(0.123, 0.992, -0.992, 0.123, 315.909, 207.669)" fill="#3a255d" />
                <path id="Path_95" data-name="Path 95" d="M324.21,208.53l-.11-.88,1.78.08.03.29Z" fill="#4c6880" />
                <rect id="Rectangle_31" data-name="Rectangle 31" width="1.32" height="4.61" transform="matrix(0.123, 0.992, -0.992, 0.123, 320.616, 207.888)" fill="#3a255d" />
                <rect id="Rectangle_32" data-name="Rectangle 32" width="2.86" height="0.44" transform="matrix(0.123, 0.992, -0.992, 0.123, 317.849, 207.414)" fill="#3a255d" />
              </g>
              <path id="Path_96" data-name="Path 96" d="M320.67,207.28a.473.473,0,0,1,.37.31c.14.51-.53,1.58-.78,2.02a10.911,10.911,0,0,1-1.44,1.95,12.167,12.167,0,0,1-2.03,1.9c.15-.11.43-.11.61-.22a5.474,5.474,0,0,0,.49-.35,10.318,10.318,0,0,0,1.01-.85,9.429,9.429,0,0,0,1.66-2.11,1.143,1.143,0,0,1,.26-.35,1.287,1.287,0,0,1,.77-.22.925.925,0,0,1,.29.02.46.46,0,0,1,.26.43,1.282,1.282,0,0,1-.13.51c-.11.29-.22.57-.34.86-.09.22-.22.38-.33.59a6.2,6.2,0,0,1-.89,1.46.569.569,0,0,1,.8.05.931.931,0,0,1,.17.84,2.7,2.7,0,0,1-.39.8,4.089,4.089,0,0,1-.75.91.61.61,0,0,1,.82.11.947.947,0,0,1,.13.88,2.437,2.437,0,0,1-.47.79,11.377,11.377,0,0,1-7.8,3.77,4.256,4.256,0,0,1-3.18-.58,3.974,3.974,0,0,1-1.13-1.98,4.691,4.691,0,0,1,0-3.38c.27-.69.63-1.34.87-2.04.09-.28.17-.56.28-.83a5.658,5.658,0,0,1,.46-.88c.61-1.03,1.19-2.83,2.62-2.83a7.411,7.411,0,0,0,1.63-.19c.2-.05.84-.36,1-.19a.416.416,0,0,1,.08.18,2,2,0,0,1,.05.91c-.13.66-.7.93-1.28,1.16-.48.19-.79.13-1.08.6a2.468,2.468,0,0,0-.38,1.37c0-.28,1.51-.77,1.74-.86a7.8,7.8,0,0,0,1.78-.89c1.28-.95,2.2-2.31,3.41-3.34a1.281,1.281,0,0,1,.63-.35,1.616,1.616,0,0,1,.22,0Z" fill="#ffa87d" />
              <path id="Path_97" data-name="Path 97" d="M320.37,213.44a.206.206,0,0,0-.2.06,7.167,7.167,0,0,1-1.77,1.66c-.16.1.14.18.23.12a7.429,7.429,0,0,0,1.85-1.73c.04-.06-.08-.1-.12-.1Z" fill="#e26e61" />
              <path id="Path_98" data-name="Path 98" d="M320.16,216s-.09.04-.09.09c0,.02,0,.03.01.04a1.093,1.093,0,0,0-.08.1c-.04.05-.08.09-.12.14-.08.09-.17.18-.26.27a4.342,4.342,0,0,1-.58.46c-.05.04-.06.09,0,.12a.265.265,0,0,0,.23,0,4.73,4.73,0,0,0,.81-.67c.06-.06.11-.13.17-.19.03-.04.06-.07.09-.11a.7.7,0,0,0,.08-.1c.07-.15-.17-.17-.25-.14Z" fill="#e26e61" />
              <path id="Path_99" data-name="Path 99" d="M312.17,213.17a.265.265,0,0,0-.23,0,6.769,6.769,0,0,0-.66.33c-.02.01-.05.03-.05.06s.03.05.05.06a.265.265,0,0,0,.23,0,4.065,4.065,0,0,1,.66-.33.065.065,0,0,0,.05-.06C312.22,213.2,312.19,213.18,312.17,213.17Z" fill="#e26e61" />
            </g>
            <path id="Path_100" data-name="Path 100" d="M295.52,218.9c-.05-.11-.28-.13-.37-.11q-3.42.63-6.85,1.26c-1.13.21-2.26.42-3.39.62-.28.05-.56.1-.84.16l-.17-3.79c0-.22-.62-.21-.61,0,.06,1.3.12,2.61.17,3.91-.46.1-.93.21-1.38.35a8.2,8.2,0,0,0-2.81,1.42c-.11.09.02.18.11.21a.481.481,0,0,0,.42-.06,11.148,11.148,0,0,1,5.23-1.9q3.255-.6,6.52-1.2l3.77-.69c.09-.02.26-.07.21-.19Z" fill="#e26e61" />
            <path id="Path_101" data-name="Path 101" d="M307.1,223.85a.5.5,0,0,0-.43,0c-4.79,2.12-9.59,4.24-14.48,6.12q-2.07.795-4.17,1.53c-.1.04-.2.11-.11.21s.31.09.42.06c4.99-1.74,9.87-3.79,14.71-5.91,1.36-.59,2.71-1.19,4.07-1.79.12-.05.1-.16,0-.22Z" fill="#e26e61" />
            <path id="Path_102" data-name="Path 102" d="M311.78,221.09h-.21a.277.277,0,0,1-.09-.01h-.03a.235.235,0,0,1-.08-.02.06.06,0,0,1-.04-.01.049.049,0,0,1-.03-.01h-.01c-.02,0-.03-.01-.05-.02a1.094,1.094,0,0,1-.15-.08.031.031,0,0,1-.02-.01l-.03-.02c-.02-.02-.04-.03-.06-.05a1.362,1.362,0,0,1-.24-.24.391.391,0,0,0-.37-.11c-.06.01-.29.08-.21.19a1.88,1.88,0,0,0,1.62.73c.09,0,.3-.02.3-.16,0-.12-.22-.16-.3-.16Z" fill="#e26e61" />
          </g>
          <path id="Path_103" data-name="Path 103" d="M253.89,239.97c-4.9.2-9.81.03-14.71-.22s-9.8-.56-14.71-.66c-2.77-.05-5.54-.03-8.3.11-.09,0-.3.02-.3.16,0,.12.22.16.3.16,4.9-.25,9.81-.12,14.71.11s9.8.56,14.71.69c2.77.07,5.54.07,8.3-.04.09,0,.3-.03.3-.16s-.22-.16-.3-.16Z" fill="#b5696d" />
          <g id="Group_27" data-name="Group 27">
            <path id="Path_104" data-name="Path 104" d="M294.17,185.31a4.239,4.239,0,0,1-.33.39,3.126,3.126,0,0,1-.33.31,7.247,7.247,0,0,1-.87.68,11.252,11.252,0,0,1-2.14,1.04c-3.19,1.31-4.62,3.8-5.97,6.5-.44.88-.87,1.79-1.35,2.68-.17.33-.36.66-.55.98-.11-1.35-.24-2.71-.39-4.06.03-1.18.05-2.35.05-3.53v-1.51c0-1.32-.05-2.64-.15-3.95a24.783,24.783,0,0,0-.68-4.53,14.512,14.512,0,0,0-1.35-3.35,13.885,13.885,0,0,1,1.95-.55c1.88-.58,3.67-.81,5.41-1.8,1.28-.73,2.59-1.37,4.09-.57a5.443,5.443,0,0,1,2.52,3.75,6.25,6.25,0,0,1,.08,1.66c-.05.71-.17,1.42-.21,2.16-.06,1,.34,1.31.61,2.27a1.649,1.649,0,0,1-.39,1.4Z" fill="#ffa87d" />
            <path id="Path_105" data-name="Path 105" d="M292.65,186.7a12.591,12.591,0,0,1-2.14,1.04,6.248,6.248,0,0,1-1.52-4.29c-.01-1.75.81-5.05,3.11-4.78a3.9,3.9,0,0,1,2.05.81c-.05.71-.17,1.42-.21,2.16-.06,1,.34,1.31.61,2.27a1.649,1.649,0,0,1-.39,1.4,4.239,4.239,0,0,1-.33.39,3.126,3.126,0,0,1-.33.31,7.247,7.247,0,0,1-.87.68Z" fill="#e26e61" />
            <path id="Path_106" data-name="Path 106" d="M312.05,174.25a8.155,8.155,0,0,1-1.19,2.13,25.836,25.836,0,0,1-2.89,2.84c-.88.82-2.03,1.77-1.94,3.04.08,1.14.16,2.28.23,3.42a2.047,2.047,0,0,1-.05.82c-.18.54-.66.53-1.14.49-.54-.05-1.07-.2-1.61-.23-1.74-.11-2.79,1.31-4.08,2.21a3.862,3.862,0,0,1-4.14.49c-2.4-1.21-3.76-4.07-4.36-6.55a12.329,12.329,0,0,1-.34-3.32,8.135,8.135,0,0,1,.57-3.17c.55-1.12-.26-1.97-1.2-2.55-4.67-3.33-1.32-8.61,2.05-11.43a20.291,20.291,0,0,1,4.87-3.17,6.853,6.853,0,0,1,5.54.08,17.761,17.761,0,0,1,7.32,4.85,12.391,12.391,0,0,1,2.3,3.75,8.939,8.939,0,0,1,.08,6.28Z" fill="#ffa87d" />
            <path id="Path_107" data-name="Path 107" d="M308.26,177.73a.99.99,0,0,1-.3,0,1.76,1.76,0,0,1-.58-.21,18.723,18.723,0,0,0-1.75-.96c-.45-.18-1.17-.22-1.46-.68a.114.114,0,0,1-.03-.08.127.127,0,0,1,.04-.09,1.074,1.074,0,0,1,.94-.22,4.637,4.637,0,0,1,2.84,1.16c.35.32.8.99.3,1.08Z" fill="#020808" />
            <path id="Path_108" data-name="Path 108" d="M299.41,185.77a2.668,2.668,0,0,1-.78-2.54c.03-.2-.49-.46-.53-.23a3.648,3.648,0,0,0,.11,1.64,2.776,2.776,0,0,0,1.03,1.4c.07.05.26.13.33.03s-.11-.24-.17-.28Z" fill="#e26e61" />
            <path id="Path_109" data-name="Path 109" d="M303.93,174.31c-.49-.06-.98-.14-1.47-.19a34.92,34.92,0,0,0-4.09-.11,35.528,35.528,0,0,0-8.01,1.16c-2.94.78-5.84,1.94-8.87,1.92-.71,0-1.41-.07-2.12-.14a3.787,3.787,0,0,1-1.91-.54,2.643,2.643,0,0,1-.63-3.12,5.2,5.2,0,0,1,2.96-2.84,8.364,8.364,0,0,1,2.43-.46c.21-.01,2.34.08,2.35.05.98-3.04,2.83-6.69,5.35-8.77,2.45-2.02,5.68-4.28,8.98-4.39a10.4,10.4,0,0,1,6.42,2.3,31.18,31.18,0,0,1,4.87,4.94c1.66,1.96,4.38,7.06,1.45,9.11a5.041,5.041,0,0,1-2.25.74c-1.03.15-2.06.23-3.1.28-.59.03-1.2.11-1.78.09a5.48,5.48,0,0,1-.57-.05Z" fill="#020808" />
            <path id="Path_110" data-name="Path 110" d="M298.21,173.31a2.06,2.06,0,0,0-.73-2.45,2.607,2.607,0,0,0-2.68-.17c-1.68.85-2.52,2.94-2.93,4.67-.16.69-.18,1.58.42,1.95a1.585,1.585,0,0,0,.89.17,4.744,4.744,0,0,0,3.02-1.28,19.66,19.66,0,0,0,1.27-1.62,3.784,3.784,0,0,0,.75-1.28Z" fill="#ffa87d" />
            <path id="Path_111" data-name="Path 111" d="M305.35,179.09a.672.672,0,0,0-.22-.98c-.51-.27-1.15.41-1.36.82a.585.585,0,0,0,.39,1,1.464,1.464,0,0,0,1.2-.84Z" fill="#020808" />
            <g id="Group_26" data-name="Group 26">
              <path id="Path_112" data-name="Path 112" d="M310.96,168.17a4.586,4.586,0,0,1-2.63,2.99,12.369,12.369,0,0,1-4.86.85c-.08,0-.25.02-.25.13s.18.13.25.13a13.264,13.264,0,0,0,5.22-.93,4.894,4.894,0,0,0,2.78-3.18c.04-.15-.47-.19-.51,0Z" fill="#4c6880" />
              <path id="Path_113" data-name="Path 113" d="M309.23,167.1a4.632,4.632,0,0,1-2.98,2.29c-.09.02-.16.1-.09.18a.428.428,0,0,0,.35.05,4.967,4.967,0,0,0,3.21-2.44c.09-.17-.41-.22-.49-.07Z" fill="#4c6880" />
              <path id="Path_114" data-name="Path 114" d="M298.22,157.83c-.07-.09-.25-.07-.35-.05a14.691,14.691,0,0,0-9.24,6.96,13.909,13.909,0,0,0-1.31,3.13c-.06.2.45.23.49.07a14.363,14.363,0,0,1,7.23-8.79,13.2,13.2,0,0,1,3.09-1.14c.09-.02.16-.1.09-.18Z" fill="#4c6880" />
              <path id="Path_115" data-name="Path 115" d="M294.13,161.71a.4.4,0,0,0-.35.05,12.868,12.868,0,0,0-2.52,3.21c-.09.16.4.22.49.07a12.56,12.56,0,0,1,2.47-3.15c.09-.08-.01-.15-.09-.18Z" fill="#4c6880" />
              <path id="Path_116" data-name="Path 116" d="M280.44,176.06a2.2,2.2,0,0,1-1.9-1.85,3.472,3.472,0,0,1,.28-1.53,1.968,1.968,0,0,1,.89-1.09c.1-.05.08-.13,0-.18a.413.413,0,0,0-.36,0,2.213,2.213,0,0,0-1.01,1.18,3.482,3.482,0,0,0-.29,1.8,2.6,2.6,0,0,0,2.25,1.94c.24.05.47-.19.13-.25Z" fill="#4c6880" />
              <path id="Path_117" data-name="Path 117" d="M284,175.1c-.04-.1-.23-.1-.31-.09a2.912,2.912,0,0,1-2.82-1.31c-.1-.15-.59-.08-.49.07a3.527,3.527,0,0,0,3.45,1.49c.07-.01.22-.06.18-.16Z" fill="#4c6880" />
            </g>
          </g>
          <g id="Group_28" data-name="Group 28">
            <path id="Path_118" data-name="Path 118" d="M289.19,193.96c-.25.82-.54,1.63-.87,2.42a27.7,27.7,0,0,1-4.77,7.65s-.02.02-.03.02l.28,10.96c0,.22-.6.22-.61,0l-.1-3.94c0-.17,0-.34-.01-.51-.07-2.86-.15-5.73-.22-8.59-.03-1.36-.11-2.71-.22-4.06s-.24-2.71-.39-4.06a.882.882,0,0,0-.02-.17c-.25-2.28-.47-4.56-.77-6.83-.24-1.84-.84-3.99-2.71-4.8-.12-.05-.1-.16,0-.22a.536.536,0,0,1,.43,0,4.351,4.351,0,0,1,2.11,2.1,9.505,9.505,0,0,1,.8,3.02c.08.62.15,1.25.22,1.87.06.54.12,1.07.18,1.61.24,2.15.52,4.33.72,6.5.13,1.35.22,2.7.25,4.04l.06,2.35c.4-.48.78-.97,1.15-1.48a27.305,27.305,0,0,0,3.95-7.96c.06-.19.66-.15.59.08Z" fill="#b5696d" />
            <path id="Path_119" data-name="Path 119" d="M264.79,202.15c-.2-1.13-.4-2.26-.61-3.39-.04-.22-.64-.2-.61,0q1.065,5.985,2.14,11.96l.61,3.39c.04.22.64.2.61,0Q265.865,208.125,264.79,202.15Z" fill="#b5696d" />
            <path id="Path_120" data-name="Path 120" d="M262.01,215.97a101.739,101.739,0,0,1-13.79-4.68c-1.26-.53-2.51-1.1-3.76-1.68a.5.5,0,0,0-.43,0c-.1.06-.12.16,0,.22a102.785,102.785,0,0,0,13.66,5.28c1.33.4,2.66.78,4.01,1.13.12.03.33.05.42-.06s0-.18-.11-.21Z" fill="#b5696d" />
            <path id="Path_121" data-name="Path 121" d="M254.13,287.7c-.49-6.68-1.93-13.28-3.25-19.84q-2.01-10.02-4.26-19.99c-.19-.83-.38-1.66-.56-2.49-.05-.22-.65-.19-.61,0q2.265,9.96,4.32,19.98c1.34,6.57,2.8,13.17,3.53,19.84a70.269,70.269,0,0,1-.74,19.21c-1.04,6.25-2.62,12.4-3.97,18.59a102.324,102.324,0,0,0-2.67,19.07c-.02.83-.03,1.67-.02,2.5,0,.22.61.22.61,0a91.025,91.025,0,0,1,2.19-19.24c1.29-6.21,2.89-12.35,4.06-18.59a73.408,73.408,0,0,0,1.38-19.05Z" fill="#b5696d" />
            <path id="Path_122" data-name="Path 122" d="M232.89,300.38q-.975-3.045-1.65-6.18c-.05-.22-.65-.19-.61,0,.46,2.11,1.01,4.2,1.68,6.26.06.19.66.15.59-.08Z" fill="#b5696d" />
            <path id="Path_123" data-name="Path 123" d="M256.05,229.48a.481.481,0,0,0-.42.06,61.773,61.773,0,0,1-8.26,5.55c-.11.06-.11.16,0,.22a.5.5,0,0,0,.43,0,63.616,63.616,0,0,0,8.36-5.62C256.27,229.6,256.13,229.51,256.05,229.48Z" fill="#b5696d" />
            <path id="Path_124" data-name="Path 124" d="M258.82,219.58a94.741,94.741,0,0,1-10.01,5.3c-.12.05-.1.16,0,.22a.5.5,0,0,0,.43,0,96.627,96.627,0,0,0,10.01-5.3C259.54,219.62,258.99,219.48,258.82,219.58Z" fill="#b5696d" />
            <path id="Path_125" data-name="Path 125" d="M225.45,209.41a33.323,33.323,0,0,0-2.84,10.44c-.02.2.59.22.61,0a32.749,32.749,0,0,1,2.82-10.36c.1-.21-.5-.27-.59-.08Z" fill="#b5696d" />
          </g>
        </g>
        <g id="Group_33" data-name="Group 33">
          <rect id="Rectangle_33" data-name="Rectangle 33" width="1.42" height="65.36" transform="translate(330.1 293.49)" fill="#3a255d" />
          <g id="Group_30" data-name="Group 30">
            <path id="Path_126" data-name="Path 126" d="M291.98,324.61l-.05,8.17a1.121,1.121,0,0,1-1.04,1.18l-8.14-.05a1.123,1.123,0,0,1-1.03-1.19l.05-8.17a12.684,12.684,0,0,1,.38-3.02,11.511,11.511,0,0,1,2.64-4.96l.35-.39,3.56.02.35.39a11.5,11.5,0,0,1,2.58,5A13.132,13.132,0,0,1,291.98,324.61Z" fill="#6a8ea8" />
            <path id="Path_127" data-name="Path 127" d="M289.38,316.21l-4.91-.03.25-3.21a.491.491,0,0,1,.49-.45l3.48.02a.481.481,0,0,1,.48.45Z" fill="#bee2ea" />
            <path id="Path_128" data-name="Path 128" d="M291.98,324.61l-.03,4.58-10.21-.06.03-4.58a12.684,12.684,0,0,1,.38-3.02l9.48.06a13.132,13.132,0,0,1,.35,3.02Z" fill="#bee2ea" />
          </g>
          <rect id="Rectangle_34" data-name="Rectangle 34" width="1.42" height="65.36" transform="translate(274.64 293.49)" fill="#3a255d" />
          <rect id="Rectangle_35" data-name="Rectangle 35" width="56.89" height="7.11" transform="translate(274.64 292.51)" fill="#3a255d" />
          <rect id="Rectangle_36" data-name="Rectangle 36" width="56.89" height="4.06" transform="translate(274.64 333.96)" fill="#3a255d" />
          <g id="Group_31" data-name="Group 31">
            <path id="Path_129" data-name="Path 129" d="M279.41,358.93a4.06,4.06,0,1,1-4.06-4.06A4.063,4.063,0,0,1,279.41,358.93Z" fill="#020808" />
            <path id="Path_130" data-name="Path 130" d="M277.38,358.93a2.03,2.03,0,1,1-2.03-2.03A2.031,2.031,0,0,1,277.38,358.93Z" fill="#6a8ea8" />
          </g>
          <g id="Group_32" data-name="Group 32">
            <path id="Path_131" data-name="Path 131" d="M335.08,358.95a4.06,4.06,0,1,1-4.06-4.06A4.063,4.063,0,0,1,335.08,358.95Z" fill="#020808" />
            <path id="Path_132" data-name="Path 132" d="M333.05,358.95a2.03,2.03,0,1,1-2.03-2.03A2.031,2.031,0,0,1,333.05,358.95Z" fill="#6a8ea8" />
          </g>
          <rect id="Rectangle_37" data-name="Rectangle 37" width="8.74" height="18.25" transform="translate(295.63 315.71)" fill="#3a255d" />
          <rect id="Rectangle_38" data-name="Rectangle 38" width="16.86" height="11.99" transform="translate(308.67 321.97)" fill="#3a255d" />
          <path id="Path_133" data-name="Path 133" d="M304.2,289.67H278.39l2.24,2.84h25.6l2.23-2.84Z" fill="#bee2ea" />
        </g>
        <g id="Group_35" data-name="Group 35">
          <ellipse id="Ellipse_2" data-name="Ellipse 2" cx="38.5" cy="9.5" rx="38.5" ry="9.5" transform="translate(131.5 335)" fill="#bee2ea" opacity="0.8" />
          <g id="Group_34" data-name="Group 34">
            <path id="Path_134" data-name="Path 134" d="M158.93,281.17h22.13a2.569,2.569,0,0,0,2.57-2.57h0a2.569,2.569,0,0,0-2.57-2.57H158.93a2.569,2.569,0,0,0-2.57,2.57h0A2.569,2.569,0,0,0,158.93,281.17Z" fill="#f8b8b9" />
            <path id="Path_135" data-name="Path 135" d="M145.41,277.42h49.18a4.357,4.357,0,0,0,4.36-4.36h0a4.357,4.357,0,0,0-4.36-4.36H145.41a4.357,4.357,0,0,0-4.36,4.36h0A4.357,4.357,0,0,0,145.41,277.42Z" fill="#4c6880" />
            <rect id="Rectangle_39" data-name="Rectangle 39" width="4.47" height="48.2" transform="translate(167.88 279.8)" fill="#3a255d" />
            <path id="Path_136" data-name="Path 136" d="M189.49,342.79l3.04-1.42-1.68-3.6c-3.34-7.17-9.13-11.45-15.51-11.45h-5.48v3.35h5.48c5.03,0,9.69,3.56,12.47,9.51l1.68,3.6Z" fill="#f8b8b9" />
            <path id="Path_137" data-name="Path 137" d="M150.73,342.9l1.68-3.6c2.77-5.96,7.43-9.51,12.47-9.51h5.48v-3.35h-5.48c-6.37,0-12.17,4.28-15.51,11.45l-1.68,3.6,3.04,1.42Z" fill="#f8b8b9" />
            <path id="Path_138" data-name="Path 138" d="M165.13,342.55l.77-3.6c1.44-6.72,3.66-9.16,4.81-9.16h2.53v-3.35h-2.53c-3.58,0-6.45,4.19-8.09,11.81l-.77,3.6Z" fill="#f8b8b9" />
            <path id="Path_139" data-name="Path 139" d="M187.77,342.75a4.25,4.25,0,1,0,4.25-4.25A4.246,4.246,0,0,0,187.77,342.75Z" fill="#4c6880" />
            <path id="Path_140" data-name="Path 140" d="M189.78,342.75a2.24,2.24,0,1,0,2.24-2.24A2.243,2.243,0,0,0,189.78,342.75Z" fill="#020808" />
            <path id="Path_141" data-name="Path 141" d="M159.83,342.75a4.25,4.25,0,1,0,4.25-4.25A4.246,4.246,0,0,0,159.83,342.75Z" fill="#4c6880" />
            <path id="Path_142" data-name="Path 142" d="M161.84,342.75a2.24,2.24,0,1,0,2.24-2.24A2.243,2.243,0,0,0,161.84,342.75Z" fill="#020808" />
            <path id="Path_143" data-name="Path 143" d="M144.85,342.75a4.25,4.25,0,1,0,4.25-4.25A4.246,4.246,0,0,0,144.85,342.75Z" fill="#4c6880" />
            <path id="Path_144" data-name="Path 144" d="M146.86,342.75a2.24,2.24,0,1,0,2.24-2.24A2.243,2.243,0,0,0,146.86,342.75Z" fill="#020808" />
          </g>
        </g>
        <g id="Group_38" data-name="Group 38">
          <g id="Group_37" data-name="Group 37">
            <g id="Group_36" data-name="Group 36">
              <path id="Path_145" data-name="Path 145" d="M80.31,217.33l4.77-19.09v-.05h4.08v-4.97H85.08a4.936,4.936,0,0,0-4.84,3.95L75.5,216.13l4.82,1.2Z" fill="#6a8ea8" />
              <path id="Path_146" data-name="Path 146" d="M76.72,201.72a5.312,5.312,0,0,0-2.68-.71,36.518,36.518,0,0,1-9.34-2.14,2.835,2.835,0,0,0-1.2-.27.922.922,0,0,0-.9.69c-.07.49.42.87.86,1.12a17.58,17.58,0,0,0,4.49,1.77c1.32.32,2.79.54,3.71,1.52.38.41.64.92,1,1.34a3.5,3.5,0,0,0,4.38.57c1.36-.88.89-3.01-.31-3.9Z" fill="#6a8ea8" />
              <path id="Path_147" data-name="Path 147" d="M87.67,202l4.7-.98a2.061,2.061,0,0,0,1.6-2.45l-.37-1.75a4.459,4.459,0,0,0-5.29-3.46h0a4.459,4.459,0,0,0-3.46,5.29l.37,1.75a2.061,2.061,0,0,0,2.45,1.6Z" fill="#6a8ea8" />
              <path id="Path_148" data-name="Path 148" d="M85.57,201.2a2.077,2.077,0,0,0,2.09.8l4.69-.98a2.057,2.057,0,0,0,1.6-1.59,1.612,1.612,0,0,1-.29.09l-8.1,1.69Z" fill="#4c6880" />
              <rect id="Rectangle_40" data-name="Rectangle 40" width="6.79" height="13.41" transform="translate(77.9 216.73) rotate(180)" fill="#3a255d" />
            </g>
            <path id="Path_149" data-name="Path 149" d="M71.76,207.52h5.46a.282.282,0,0,1,.08.01c.09-.43.19-.87.28-1.3.03-.14.4-.12.37,0q-1.035,4.98-2.15,9.94c-.03.14-.4.11-.37,0q.945-4.23,1.84-8.47h-5.5c-.22,0-.22-.19,0-.19Z" fill="#4c6880" />
            <path id="Path_150" data-name="Path 150" d="M84.69,196.28c.05-.11.42-.08.36.05a4.992,4.992,0,0,0-.15,2.79c.02.12-.35.14-.37,0a5.085,5.085,0,0,1,.17-2.84Z" fill="#4c6880" />
            <path id="Path_151" data-name="Path 151" d="M71.26,203.59a.3.3,0,0,1,.26,0,9.353,9.353,0,0,0,4.68.91c.22-.01.22.18,0,.19a9.968,9.968,0,0,1-4.95-.97c-.08-.04-.05-.09,0-.13Z" fill="#4c6880" />
          </g>
          <path id="Path_152" data-name="Path 152" d="M49.27,215.13H105.1a15.9,15.9,0,0,1,15.89,15.89v9.09a3.013,3.013,0,0,1-3.01,3.01H36.39a3.013,3.013,0,0,1-3.01-3.01v-9.09A15.9,15.9,0,0,1,49.27,215.13Z" transform="translate(154.38 458.25) rotate(180)" fill="#bee2ea" />
        </g>
        <g id="Group_39" data-name="Group 39">
          <path id="Path_153" data-name="Path 153" d="M117.73,165.67v25.59a3.239,3.239,0,0,0,3.24,3.24h15.64a3.239,3.239,0,0,0,3.24-3.24V165.67a3.226,3.226,0,0,0-3.04-3.23,1.341,1.341,0,0,0-.2-.01H120.97a1.341,1.341,0,0,0-.2.01,3.226,3.226,0,0,0-3.04,3.23Z" fill="#f8b8b9" />
          <path id="Path_154" data-name="Path 154" d="M120.77,162.44v16.44a5.954,5.954,0,0,0,5.94,5.94h4.16a5.954,5.954,0,0,0,5.94-5.94V162.44a1.341,1.341,0,0,0-.2-.01h-.35v16.45a5.392,5.392,0,0,1-5.39,5.39h-4.16a5.392,5.392,0,0,1-5.39-5.39V162.43h-.35A1.341,1.341,0,0,0,120.77,162.44Z" fill="#b5696d" />
          <rect id="Rectangle_41" data-name="Rectangle 41" width="9.95" height="3.32" rx="1.22" transform="translate(133.76 192.29) rotate(180)" fill="#3a255d" />
        </g>
        <g id="Group_41" data-name="Group 41">
          <g id="Group_40" data-name="Group 40">
            <path id="Path_155" data-name="Path 155" d="M68.55,157.78c-1.97.09-4.11.25-5.72-.86a11.877,11.877,0,0,1-1.87-1.88,13.135,13.135,0,0,0-5.57-3.57,52.815,52.815,0,0,0,4.63-14.4,51.784,51.784,0,0,1,14.73-1.37c2.54.13,5.12.44,7.58-.19a5.06,5.06,0,0,1,1.91-.3,4.143,4.143,0,0,1,1.64.75c2.13,1.41,4.8,1.9,7.09,3.09a3.531,3.531,0,0,1,1.53,1.24,3.636,3.636,0,0,1,.32,1.73,160.437,160.437,0,0,1-1.14,21.91c.1-.78-10.32-4.31-11.22-4.56A45.063,45.063,0,0,0,68.55,157.78Z" fill="#fff" />
            <path id="Path_156" data-name="Path 156" d="M82.35,159.74a44.4,44.4,0,0,0-13.79-1.58l-.34.02c-1.87.09-3.99.18-5.63-.95a8.482,8.482,0,0,1-1.52-1.47l-.41-.47a12.649,12.649,0,0,0-5.41-3.47l-.42-.14.2-.4a52.477,52.477,0,0,0,4.6-14.29l.04-.25.25-.06a52.194,52.194,0,0,1,14.84-1.38c.41.02.82.05,1.23.07a20.282,20.282,0,0,0,6.23-.25l.3-.08a4.5,4.5,0,0,1,1.76-.23,4.378,4.378,0,0,1,1.8.81,18.34,18.34,0,0,0,3.91,1.77,26.783,26.783,0,0,1,3.15,1.3,3.785,3.785,0,0,1,1.68,1.4,3.961,3.961,0,0,1,.37,1.92,161,161,0,0,1-1.14,21.96l-.77-.09a.294.294,0,0,0,.03.17c-.58-.76-9.57-3.92-10.98-4.31Zm.39-23.94-.31.08a20.676,20.676,0,0,1-6.47.27c-.41-.03-.82-.05-1.23-.07a51.018,51.018,0,0,0-14.37,1.3,53.086,53.086,0,0,1-4.44,13.85,13.456,13.456,0,0,1,5.32,3.54c.14.16.29.32.43.48a7.913,7.913,0,0,0,1.38,1.34c1.42.98,3.31.9,5.15.81l.34-.02a45.331,45.331,0,0,1,14.03,1.6c.1.03,8.35,2.61,10.82,4.21a159.341,159.341,0,0,0,1.06-21.18,3.307,3.307,0,0,0-.27-1.55,3.132,3.132,0,0,0-1.37-1.09,25.4,25.4,0,0,0-3.05-1.26,19.142,19.142,0,0,1-4.07-1.85,3.583,3.583,0,0,0-1.48-.69,1.943,1.943,0,0,0-.24-.02,4.916,4.916,0,0,0-1.21.22Z" fill="#bee2ea" />
          </g>
          <rect id="Rectangle_42" data-name="Rectangle 42" width="46.45" height="58.61" rx="3.54" transform="translate(100.41 141.96) rotate(180)" fill="#3a255d" />
          <path id="Path_157" data-name="Path 157" d="M56.77,115.07H97.62c.49,0,1.66.05,1.66.28s-1.2.28-1.66.28H56.77c-.49,0-1.66-.05-1.66-.28s1.2-.28,1.66-.28Z" fill="#4c6880" />
          <path id="Path_158" data-name="Path 158" d="M73.32,137.54c0,.61,1.73,1.11,3.87,1.11s3.87-.5,3.87-1.11-1.73-1.11-3.87-1.11S73.32,136.93,73.32,137.54Z" fill="#4c6880" />
        </g>
        <g id="Group_42" data-name="Group 42">
          <path id="Path_159" data-name="Path 159" d="M54.13,309.66v-49.6a4.349,4.349,0,0,1,4.34-4.34H95.9a4.349,4.349,0,0,1,4.34,4.34v49.6A4.349,4.349,0,0,1,95.9,314H58.47a4.349,4.349,0,0,1-4.34-4.34Zm4.34-53.16a3.572,3.572,0,0,0-3.57,3.57v49.6a3.572,3.572,0,0,0,3.57,3.57H95.9a3.572,3.572,0,0,0,3.57-3.57v-49.6a3.572,3.572,0,0,0-3.57-3.57Z" fill="#bee2ea" />
          <rect id="Rectangle_43" data-name="Rectangle 43" width="3.32" height="6.64" rx="1.5" transform="translate(60.61 288.18) rotate(180)" fill="#3a255d" />
        </g>
        <g id="Group_44" data-name="Group 44">
          <ellipse id="Ellipse_3" data-name="Ellipse 3" cx="22" cy="7" rx="22" ry="7" transform="translate(3.5 329)" fill="#bee2ea" opacity="0.8" />
          <g id="Group_43" data-name="Group 43">
            <path id="Path_160" data-name="Path 160" d="M11.46,283H43.44l-3.12,55H9.9L6.78,283Z" fill="#5eadb5" />
            <path id="Path_161" data-name="Path 161" d="M6,283H45a7,7,0,0,0-7-7H13a7,7,0,0,0-7,7Z" fill="#5eadb5" />
            <path id="Path_162" data-name="Path 162" d="M8.07,283.09H42.85c.47,0,.47.51,0,.51H8.07C7.6,283.6,7.6,283.09,8.07,283.09Z" fill="#4c6880" />
          </g>
        </g>
        <g id="Group_72" data-name="Group 72">
          <path id="Path_163" data-name="Path 163" d="M581,335.5c0,5.25-27.76,9.5-62,9.5s-62-4.25-62-9.5c0-3.05,9.35-5.76,23.89-7.5h76.22C571.65,329.74,581,332.45,581,335.5Z" fill="#bee2ea" opacity="0.8" />
          <g id="Group_71" data-name="Group 71">
            <g id="Group_69" data-name="Group 69">
              <g id="Group_45" data-name="Group 45">
                <path id="Path_164" data-name="Path 164" d="M465.66,336.86h-1.35V309.81h4.83Z" fill="#4c6880" />
                <path id="Path_165" data-name="Path 165" d="M554.9,336.86h1.35V309.81h-4.83Z" fill="#4c6880" />
              </g>
              <rect id="Rectangle_44" data-name="Rectangle 44" width="99.67" height="180.41" transform="translate(460.44 135)" fill="#3a255d" />
              <g id="Group_46" data-name="Group 46">
                <path id="Path_166" data-name="Path 166" d="M556.16,285.27H464.4V264.39h91.76Zm-90.8-.98H555.2V265.36H465.36v18.93Z" fill="#fff" />
                <path id="Path_167" data-name="Path 167" d="M556.16,259.84H464.4V238.96h91.76Zm-90.8-.97H555.2V239.94H465.36v18.93Z" fill="#fff" />
                <path id="Path_168" data-name="Path 168" d="M556.16,310.69H464.4V289.81h91.76Zm-90.8-.97H555.2V290.78H465.36v18.94Z" fill="#fff" />
              </g>
              <g id="Group_68" data-name="Group 68">
                <g id="Group_66" data-name="Group 66">
                  <rect id="Rectangle_45" data-name="Rectangle 45" width="80.17" height="83.78" transform="translate(469.32 146.7)" fill="#3a255d" />
                  <rect id="Rectangle_46" data-name="Rectangle 46" width="80.17" height="2.12" transform="translate(469.32 173.35)" fill="#3a255d" />
                  <rect id="Rectangle_47" data-name="Rectangle 47" width="80.17" height="2.12" transform="translate(469.32 202.13)" fill="#3a255d" />
                  <g id="Group_48" data-name="Group 48">
                    <path id="Path_169" data-name="Path 169" d="M482.66,162.94v8.7A1.656,1.656,0,0,1,481,173.3h-3.19v-.05h-1.69a1.662,1.662,0,0,1-1.66-1.66v-8.7a1.673,1.673,0,0,1,.53-1.22l1.1-1.03a2.636,2.636,0,0,0,.81-2.43l-.09-.52a.883.883,0,0,1,.19-.73.756.756,0,0,1,.3-.23v-.83h2.52v.83a.79.79,0,0,1,.31.24.875.875,0,0,1,.19.73l-.1.57a2.636,2.636,0,0,0,.81,2.43l1.1,1.03a1.657,1.657,0,0,1,.53,1.22Z" fill="#9bcbd3" />
                    <path id="Path_170" data-name="Path 170" d="M482.66,165.33v6.32a1.656,1.656,0,0,1-1.66,1.66h-3.19v-.05h-1.69a1.662,1.662,0,0,1-1.66-1.66v-6.27h8.21Z" fill="#6a8ea8" />
                    <g id="Group_47" data-name="Group 47">
                      <path id="Path_171" data-name="Path 171" d="M479.82,158.01V155.9a.807.807,0,0,0-.81-.81h-.91a.807.807,0,0,0-.81.81v2.11h2.52Z" fill="#4c6880" />
                      <path id="Path_172" data-name="Path 172" d="M482.13,161.72l-1.1-1.03a2.636,2.636,0,0,1-.81-2.43l.1-.57a.883.883,0,0,0-.19-.73,1.034,1.034,0,0,0-.31-.24.771.771,0,0,0-.37-.08h-1.77a.921.921,0,0,0-.38.08.962.962,0,0,0-.3.23.875.875,0,0,0-.19.73l.09.52a2.636,2.636,0,0,1-.81,2.43l-1.1,1.03a1.657,1.657,0,0,0-.53,1.22v8.7a1.656,1.656,0,0,0,1.66,1.66h1.69v.05H481a1.656,1.656,0,0,0,1.66-1.66v-8.7a1.657,1.657,0,0,0-.53-1.22Zm.24,9.92a1.372,1.372,0,0,1-1.37,1.37h-2.9v-.05h-1.98a1.366,1.366,0,0,1-1.37-1.37v-8.7a1.363,1.363,0,0,1,.44-1l1.1-1.03a2.963,2.963,0,0,0,.9-2.7l-.09-.52a.59.59,0,0,1,.13-.49.269.269,0,0,1,.08-.07.594.594,0,0,1,.38-.14h1.77a.594.594,0,0,1,.37.13.3.3,0,0,1,.08.08.606.606,0,0,1,.13.49l-.1.57a2.938,2.938,0,0,0,.9,2.7l1.1,1.03a1.363,1.363,0,0,1,.44,1v8.7Z" fill="#fff" />
                    </g>
                  </g>
                  <g id="Group_50" data-name="Group 50">
                    <path id="Path_173" data-name="Path 173" d="M514.77,220.2v8.7a1.656,1.656,0,0,1-1.66,1.66h-3.19v-.05h-1.69a1.662,1.662,0,0,1-1.66-1.66v-8.7a1.673,1.673,0,0,1,.53-1.22l1.1-1.03a2.636,2.636,0,0,0,.81-2.43l-.09-.52a.883.883,0,0,1,.19-.73.756.756,0,0,1,.3-.23v-.83h2.52v.83a.791.791,0,0,1,.31.24.875.875,0,0,1,.19.73l-.1.57a2.663,2.663,0,0,0,.81,2.44l1.1,1.03a1.657,1.657,0,0,1,.53,1.22Z" fill="#9bcbd3" />
                    <path id="Path_174" data-name="Path 174" d="M514.77,222.59v6.32a1.656,1.656,0,0,1-1.66,1.66h-3.19v-.05h-1.69a1.662,1.662,0,0,1-1.66-1.66v-6.27h8.21Z" fill="#6a8ea8" />
                    <g id="Group_49" data-name="Group 49">
                      <path id="Path_175" data-name="Path 175" d="M511.92,215.27v-2.11a.807.807,0,0,0-.81-.81h-.91a.807.807,0,0,0-.81.81v2.11h2.52Z" fill="#4c6880" />
                      <path id="Path_176" data-name="Path 176" d="M514.24,218.99l-1.1-1.03a2.646,2.646,0,0,1-.81-2.44l.1-.57a.883.883,0,0,0-.19-.73,1.035,1.035,0,0,0-.31-.24.771.771,0,0,0-.37-.08h-1.77a.865.865,0,0,0-.68.31.875.875,0,0,0-.19.73l.09.52a2.636,2.636,0,0,1-.81,2.43l-1.1,1.03a1.657,1.657,0,0,0-.53,1.22v8.7a1.656,1.656,0,0,0,1.66,1.66h1.69v.05h3.19a1.656,1.656,0,0,0,1.66-1.66v-8.7a1.657,1.657,0,0,0-.53-1.22Zm.23,9.92a1.366,1.366,0,0,1-1.37,1.37h-2.9v-.05h-1.98a1.366,1.366,0,0,1-1.37-1.37v-8.7a1.363,1.363,0,0,1,.44-1l1.1-1.03a2.963,2.963,0,0,0,.9-2.7l-.09-.52a.59.59,0,0,1,.13-.49.269.269,0,0,1,.08-.07.594.594,0,0,1,.38-.14h1.77a.594.594,0,0,1,.37.13.3.3,0,0,1,.08.08.606.606,0,0,1,.13.49l-.1.57a2.938,2.938,0,0,0,.9,2.7l1.11,1.03a1.363,1.363,0,0,1,.44,1v8.7Z" fill="#fff" />
                    </g>
                  </g>
                  <g id="Group_52" data-name="Group 52">
                    <path id="Path_177" data-name="Path 177" d="M499.07,196.31v4.85c0,.56-.73.99-1.66.99h-3.2v-.03h-1.69c-.93,0-1.66-.44-1.66-.99v-4.85a.789.789,0,0,1,.38-.63,1.178,1.178,0,0,1,.19-.11l1.1-.57c.64-.33.93-.8.78-1.26l-.1-.29a.392.392,0,0,1,.06-.36.853.853,0,0,1,.42-.27v-.7a.57.57,0,0,1,.57-.57h1.38a.57.57,0,0,1,.57.57v.7a.782.782,0,0,1,.43.27.392.392,0,0,1,.06.36l-.1.32c-.15.46.14.93.78,1.26l1.1.57.15.09a.825.825,0,0,1,.41.66Z" fill="#9bcbd3" />
                    <path id="Path_178" data-name="Path 178" d="M499.07,196.31v4.85c0,.56-.73.99-1.66.99h-3.2v-.03h-1.69c-.93,0-1.66-.44-1.66-.99v-4.85a.789.789,0,0,1,.38-.63h7.42A.825.825,0,0,1,499.07,196.31Z" fill="#6a8ea8" />
                    <g id="Group_51" data-name="Group 51">
                      <path id="Path_179" data-name="Path 179" d="M496.23,192.09v.82H493.7v-.82a.57.57,0,0,1,.57-.57h1.38a.57.57,0,0,1,.57.57Z" fill="#4c6880" />
                      <path id="Path_180" data-name="Path 180" d="M498.65,195.65l-.15-.09-1.1-.57c-.64-.33-.93-.8-.78-1.26l.1-.32a.392.392,0,0,0-.06-.36.782.782,0,0,0-.43-.27,1.438,1.438,0,0,0-.37-.05h-1.77a1.458,1.458,0,0,0-.38.05.676.676,0,0,0-.42.27.392.392,0,0,0-.06.36l.1.29c.15.46-.14.93-.78,1.26l-1.1.57c-.07.04-.13.07-.19.11a.819.819,0,0,0-.38.63v4.85c0,.56.73.99,1.66.99h1.69v.03h3.2c.93,0,1.66-.44,1.66-.99V196.3a.825.825,0,0,0-.41-.66Zm.13,5.52c0,.38-.63.7-1.37.7h-2.9v-.03h-1.98c-.74,0-1.37-.32-1.37-.7v-4.85c0-.18.15-.36.4-.49l.28-.14.83-.43c.77-.4,1.12-1.01.92-1.61l-.09-.29a.153.153,0,0,1,.02-.1.728.728,0,0,1,.57-.2h1.77a.728.728,0,0,1,.57.2.1.1,0,0,1,.02.1l-.1.32c-.19.6.16,1.21.93,1.61l.77.4.33.17c.26.13.41.31.41.49v4.85Z" fill="#fff" />
                    </g>
                  </g>
                  <g id="Group_54" data-name="Group 54">
                    <path id="Path_181" data-name="Path 181" d="M546.36,218.21v10.28a2.068,2.068,0,0,1-2.07,2.07H536.1a2.074,2.074,0,0,1-2.07-2.07V218.21a5.33,5.33,0,0,1,1.59-3.78l2.49-2.43v-.27a.421.421,0,0,1-.24-.37v-1.22a.425.425,0,0,1,.44-.41h3.78a.425.425,0,0,1,.44.41v1.22a.421.421,0,0,1-.24.37V212l2.49,2.43a5.312,5.312,0,0,1,1.59,3.78Z" fill="#9bcbd3" />
                    <path id="Path_182" data-name="Path 182" d="M546.36,219.09v9.4a2.068,2.068,0,0,1-2.07,2.07H536.1a2.074,2.074,0,0,1-2.07-2.07v-9.4h12.34Z" fill="#6a8ea8" />
                    <g id="Group_53" data-name="Group 53">
                      <path id="Path_183" data-name="Path 183" d="M544.77,214.43,542.28,212v-1.83H538.1V212l-2.49,2.43a5.312,5.312,0,0,0-1.59,3.78v10.28a2.068,2.068,0,0,0,2.07,2.07h8.19a2.068,2.068,0,0,0,2.07-2.07V218.21a5.33,5.33,0,0,0-1.59-3.78Zm1.3,14.06a1.784,1.784,0,0,1-1.78,1.78H536.1a1.784,1.784,0,0,1-1.78-1.78V218.21a5.042,5.042,0,0,1,1.5-3.57l2.58-2.52v-1.66h3.59v1.66l2.58,2.52a4.984,4.984,0,0,1,1.5,3.57Z" fill="#fff" />
                      <path id="Path_184" data-name="Path 184" d="M542.52,210.14v1.22a.421.421,0,0,1-.24.37.448.448,0,0,1-.2.04H538.3a.381.381,0,0,1-.19-.04.421.421,0,0,1-.24-.37v-1.22a.425.425,0,0,1,.44-.41h3.78a.425.425,0,0,1,.44.41Z" fill="#4c6880" />
                    </g>
                  </g>
                  <g id="Group_56" data-name="Group 56">
                    <path id="Path_185" data-name="Path 185" d="M528.1,222.96v6.29a1.276,1.276,0,0,1-1.23,1.32h-4.62a1.276,1.276,0,0,1-1.23-1.32v-6.29a3.454,3.454,0,0,1,.91-2.35l1.39-1.47v-.18h-.01a.3.3,0,0,1-.3-.31v-.93a.3.3,0,0,1,.3-.31h2.6a.3.3,0,0,1,.3.31v.93a.31.31,0,0,1-.3.31h-.11v.18l1.39,1.47A3.435,3.435,0,0,1,528.1,222.96Z" fill="#9bcbd3" />
                    <path id="Path_186" data-name="Path 186" d="M528.1,224.01v5.23a1.276,1.276,0,0,1-1.23,1.32h-4.62a1.276,1.276,0,0,1-1.23-1.32v-5.23h7.09Z" fill="#4c6880" />
                    <g id="Group_55" data-name="Group 55">
                      <path id="Path_187" data-name="Path 187" d="M527.19,220.61l-1.39-1.47v-1.16h-2.48v1.16l-1.39,1.47a3.435,3.435,0,0,0-.91,2.35v6.29a1.276,1.276,0,0,0,1.23,1.32h4.62a1.276,1.276,0,0,0,1.23-1.32v-6.29A3.454,3.454,0,0,0,527.19,220.61Zm.62,8.63a.987.987,0,0,1-.94,1.03h-4.62a.987.987,0,0,1-.94-1.03v-6.29a3.132,3.132,0,0,1,.83-2.14l1.47-1.55v-.98h1.9v.98l1.47,1.55a3.132,3.132,0,0,1,.83,2.14Z" fill="#fff" />
                      <path id="Path_188" data-name="Path 188" d="M526.2,217.72v.93a.31.31,0,0,1-.3.31h-2.6a.3.3,0,0,1-.3-.31v-.93a.3.3,0,0,1,.3-.31h2.6A.3.3,0,0,1,526.2,217.72Z" fill="#4c6880" />
                    </g>
                  </g>
                  <g id="Group_58" data-name="Group 58">
                    <path id="Path_189" data-name="Path 189" d="M520.96,165.52v6.29a1.276,1.276,0,0,1-1.23,1.32h-4.62a1.276,1.276,0,0,1-1.23-1.32v-6.29a3.454,3.454,0,0,1,.91-2.35l1.39-1.47v-.18h-.01a.3.3,0,0,1-.3-.31v-.93a.3.3,0,0,1,.3-.31h2.6a.3.3,0,0,1,.3.31v.93a.31.31,0,0,1-.3.31h-.11v.18l1.39,1.47A3.435,3.435,0,0,1,520.96,165.52Z" fill="#9bcbd3" />
                    <path id="Path_190" data-name="Path 190" d="M520.96,166.57v5.23a1.276,1.276,0,0,1-1.23,1.32h-4.62a1.276,1.276,0,0,1-1.23-1.32v-5.23h7.09Z" fill="#6a8ea8" />
                    <g id="Group_57" data-name="Group 57">
                      <path id="Path_191" data-name="Path 191" d="M520.05,163.17l-1.39-1.47v-1.16h-2.48v1.16l-1.39,1.47a3.435,3.435,0,0,0-.91,2.35v6.29a1.276,1.276,0,0,0,1.23,1.32h4.62a1.276,1.276,0,0,0,1.23-1.32v-6.29A3.454,3.454,0,0,0,520.05,163.17Zm.62,8.63a.987.987,0,0,1-.94,1.03h-4.62a.987.987,0,0,1-.94-1.03v-6.29a3.132,3.132,0,0,1,.83-2.14l1.47-1.55v-.98h1.9v.98l1.47,1.55a3.132,3.132,0,0,1,.83,2.14Z" fill="#fff" />
                      <path id="Path_192" data-name="Path 192" d="M519.07,160.28v.93a.31.31,0,0,1-.3.31h-2.6a.3.3,0,0,1-.3-.31v-.93a.3.3,0,0,1,.3-.31h2.6A.3.3,0,0,1,519.07,160.28Z" fill="#4c6880" />
                    </g>
                  </g>
                  <g id="Group_59" data-name="Group 59">
                    <path id="Path_193" data-name="Path 193" d="M544.36,153.54h-6.53l1.51,16.72h5.69l1.51-16.72Z" fill="#6a8ea8" />
                    <rect id="Rectangle_48" data-name="Rectangle 48" width="5.7" height="3.09" transform="translate(539.34 170.26)" fill="#3a255d" />
                  </g>
                  <g id="Group_60" data-name="Group 60">
                    <path id="Path_194" data-name="Path 194" d="M532.73,153.54H526.2l1.51,16.72h5.69l1.51-16.72Z" fill="#6a8ea8" />
                    <rect id="Rectangle_49" data-name="Rectangle 49" width="5.7" height="3.09" transform="translate(527.71 170.26)" fill="#3a255d" />
                  </g>
                  <g id="Group_61" data-name="Group 61">
                    <path id="Path_195" data-name="Path 195" d="M503.68,223.81l-.03,5.91a.807.807,0,0,1-.75.85l-5.88-.03a.8.8,0,0,1-.74-.86l.03-5.91a8.8,8.8,0,0,1,.28-2.18A8.324,8.324,0,0,1,498.5,218l.26-.28,2.57.02.25.28a8.205,8.205,0,0,1,1.86,3.61,8.785,8.785,0,0,1,.25,2.18Z" fill="#fff" />
                    <path id="Path_196" data-name="Path 196" d="M501.8,217.74l-3.55-.02.18-2.32a.342.342,0,0,1,.35-.32h2.51a.384.384,0,0,1,.35.34l.15,2.32Z" fill="#4c6880" />
                  </g>
                  <g id="Group_62" data-name="Group 62">
                    <path id="Path_197" data-name="Path 197" d="M526.41,195.4l-.03,5.91a.807.807,0,0,1-.75.85l-5.88-.03a.8.8,0,0,1-.74-.86l.03-5.91a8.8,8.8,0,0,1,.28-2.18,8.325,8.325,0,0,1,1.91-3.59l.26-.28,2.57.02.25.28a8.205,8.205,0,0,1,1.86,3.61,8.786,8.786,0,0,1,.25,2.18Z" fill="#fff" />
                    <path id="Path_198" data-name="Path 198" d="M524.53,189.33l-3.55-.02.18-2.32a.342.342,0,0,1,.35-.32h2.52a.384.384,0,0,1,.35.34l.15,2.32Z" fill="#4c6880" />
                  </g>
                  <g id="Group_63" data-name="Group 63">
                    <path id="Path_199" data-name="Path 199" d="M479.11,219.88v8.74a1.942,1.942,0,0,1-1.93,1.95H474.6a1.942,1.942,0,0,1-1.93-1.95v-8.74a3.217,3.217,0,0,1,5.5-2.3,3.267,3.267,0,0,1,.94,2.3Z" fill="#fff" />
                    <rect id="Rectangle_50" data-name="Rectangle 50" width="2.91" height="6.35" transform="translate(474.44 211.21)" fill="#3a255d" />
                    <rect id="Rectangle_51" data-name="Rectangle 51" width="2.91" height="4.03" transform="translate(474.44 211.21)" fill="#3a255d" />
                  </g>
                  <g id="Group_64" data-name="Group 64">
                    <path id="Path_200" data-name="Path 200" d="M489.02,219.88v8.74a1.942,1.942,0,0,1-1.93,1.95h-2.58a1.942,1.942,0,0,1-1.93-1.95v-8.74a3.217,3.217,0,0,1,5.5-2.3,3.267,3.267,0,0,1,.94,2.3Z" fill="#6a8ea8" />
                    <rect id="Rectangle_52" data-name="Rectangle 52" width="2.91" height="6.35" transform="translate(484.35 211.21)" fill="#3a255d" />
                    <rect id="Rectangle_53" data-name="Rectangle 53" width="2.91" height="4.03" transform="translate(484.35 211.21)" fill="#3a255d" />
                  </g>
                  <g id="Group_65" data-name="Group 65">
                    <rect id="Rectangle_54" data-name="Rectangle 54" width="12.29" height="7.93" transform="translate(534.05 194.23)" fill="#3a255d" />
                    <rect id="Rectangle_55" data-name="Rectangle 55" width="12.29" height="7.93" transform="translate(531.41 186.3)" fill="#3a255d" />
                  </g>
                  <rect id="Rectangle_56" data-name="Rectangle 56" width="17.18" height="9.12" transform="translate(474.59 202.16) rotate(-90)" fill="#3a255d" />
                  <rect id="Rectangle_57" data-name="Rectangle 57" width="11.5" height="9.12" transform="translate(504.45 202.22) rotate(-90)" fill="#3a255d" />
                  <rect id="Rectangle_58" data-name="Rectangle 58" width="13.49" height="6.67" transform="translate(489.92 166.68)" fill="#3a255d" />
                  <rect id="Rectangle_59" data-name="Rectangle 59" width="10.57" height="6.67" transform="translate(489.92 153.34)" fill="#3a255d" />
                  <rect id="Rectangle_60" data-name="Rectangle 60" width="13.49" height="6.67" transform="translate(493.08 160.01)" fill="#3a255d" />
                  <path id="Path_201" data-name="Path 201" d="M549.97,230.96H468.83V146.22h81.14v84.74Zm-80.17-.97h79.21V147.18H469.8v82.81Z" fill="#fff" />
                </g>
                <g id="Group_67" data-name="Group 67" opacity="0.2">
                  <path id="Path_202" data-name="Path 202" d="M503.77,146.7l-34.45,30.56v-14.4l18.21-16.16Z" fill="#fff" />
                  <path id="Path_203" data-name="Path 203" d="M549.49,196.67v14.49l-21.27,19.32h-16.2Z" fill="#fff" />
                  <path id="Path_204" data-name="Path 204" d="M513.45,146.7l-44.13,39.14v-3.6l40.07-35.54Z" fill="#fff" />
                  <path id="Path_205" data-name="Path 205" d="M549.49,152.91v3.6l-80.17,71.1v-3.6Z" fill="#fff" />
                  <path id="Path_206" data-name="Path 206" d="M549.49,146.7v.05l-80.17,71.64v-9.02l70.15-62.67Z" fill="#fff" />
                </g>
              </g>
            </g>
            <g id="Group_70" data-name="Group 70">
              <path id="Path_207" data-name="Path 207" d="M560.4,118.51v1.19a25.259,25.259,0,0,1-4.6,14.99H532.86a25.453,25.453,0,0,1-4.57-14.99v-1.19h32.12Z" fill="#f8b8b9" />
              <path id="Path_208" data-name="Path 208" d="M547.61,104.55a4.433,4.433,0,0,1-.59,1.75c-.27.5-.56,1-.85,1.48a8.248,8.248,0,0,1-4.24,3.93c-.54.18-1.11.3-1.63.52a4.3,4.3,0,0,0-1.18.75,4.912,4.912,0,0,0-1.47,2.43,20.193,20.193,0,0,0,.65,3.09h-.92c-.13-.43-.26-.88-.37-1.32-.26-1.04-.85-1.87-1.05-2.94a5.618,5.618,0,0,1,.35-3.66,4.823,4.823,0,0,1,.26-.45,42.907,42.907,0,0,1,.79-5.52c-.11-.06-.19-.14-.12-.24a2.713,2.713,0,0,0,.24-.35c.02-.07.03-.15.05-.22a.66.66,0,0,1-.27-.12c-1.25-.98-1.94-2.31-3.18-3.3-2.18-1.75-4.01-4.31-3.84-7.1a12.15,12.15,0,0,1,5.15.69c2.18.87,4.44,3.11,4.15,5.65a9.9,9.9,0,0,1,2.9-5.91,8.386,8.386,0,0,1-1.66,7.37,11.246,11.246,0,0,0-2.35,3.1,19.707,19.707,0,0,0-.82,4.71,11.634,11.634,0,0,1,3.09-1.93c2.04-.93,4.13-1.76,6.19-2.64.15-.07.73-.06.7.22Z" fill="#5eadb5" />
              <path id="Path_209" data-name="Path 209" d="M580.62,174.93a7.625,7.625,0,0,1-.22.82c-.13.43-.28.84-.38,1.28a6.532,6.532,0,0,0-.14,2.45c.05.36.05.86-.31.95a.649.649,0,0,1-.6-.27c-.82-.83-1.2-2.03-2.08-2.8a7.276,7.276,0,0,1-2.05-2.05,15.806,15.806,0,0,1-.93-3.12,14.063,14.063,0,0,1-.47-1.94,3.058,3.058,0,0,1,.25-1.71,2.568,2.568,0,0,1,.22-.35c-.19-.49-.37-.99-.55-1.47a7.356,7.356,0,0,0-.63,1.09,8.657,8.657,0,0,1-2.11,2.66c-.84.68-1.9,1.21-2.34,2.21a5.2,5.2,0,0,1-.04-3.24,11.3,11.3,0,0,0,.64-1.94,8.378,8.378,0,0,0-.23-2.28,9.005,9.005,0,0,1,1.53-5.75,2.771,2.771,0,0,1,1.1-1.17c-.09-.59-.18-1.18-.25-1.76-.09-.82-.18-1.63-.23-2.45a10.555,10.555,0,0,1-.71-.79,7.588,7.588,0,0,1-1.02-1.43,2.987,2.987,0,0,1,.04-3.19,2.268,2.268,0,0,1,1.64-.83c.1-1.74.29-3.48.52-5.21.04-.28.07-.55.1-.82-.08.04-.16.08-.25.13-.75.49-.93,1.4-1.44,2.1a16.853,16.853,0,0,1-2.62,2.51,29.154,29.154,0,0,0-2.62,2.82,2.922,2.922,0,0,1-.25-1.66,5.958,5.958,0,0,1,.44-2.45,16.73,16.73,0,0,1,1.19-1.74,10.154,10.154,0,0,0,.93-2.07c.39-1.08.78-2.15,1.17-3.22a7.489,7.489,0,0,1,.91-1.94,2.894,2.894,0,0,1,1.59-1.06c.17-.05,1.65-.43,1.66-.43a24.875,24.875,0,0,0-.46-6.08c-.04-.21-.09-.41-.14-.62a7.363,7.363,0,0,0-.7-.96,8.525,8.525,0,0,0-1.18-.98,6.673,6.673,0,0,1-2.24-2.18,3.7,3.7,0,0,1-.07-3.15,20.966,20.966,0,0,0-2.73-2.17,6.845,6.845,0,0,1-.91.1,13.134,13.134,0,0,1-1.66,0,9.677,9.677,0,0,1-1.57-.13,1.915,1.915,0,0,1-.53-.16,1.58,1.58,0,0,1-.8-.62,1.352,1.352,0,0,1-.24-.92c-.19.04-.38.08-.58.13a8.654,8.654,0,0,0-2.21,1.06,3.7,3.7,0,0,0-.5.35h-1.31c.18-.12.36-.24.53-.36a12.039,12.039,0,0,1,1.34-.83,7.576,7.576,0,0,1,2.92-.93,1.448,1.448,0,0,1,.8-.63,3.581,3.581,0,0,1,1.66-.02l1.62.2c.4-.07.81-.13,1.22-.16a9.547,9.547,0,0,1,1.69.04,7.55,7.55,0,0,1,.83.13c.21.04.41.13.61.02a.76.76,0,0,1,.61.06c.11.07.25.25.08.35a15.769,15.769,0,0,0-1.57.97c-.47.33-.88.74-1.36,1.04.16.11.33.23.5.34.65.46,1.28.95,1.89,1.48.1-.15.22-.29.33-.43a.183.183,0,0,1-.05-.24,2.685,2.685,0,0,1,2.72-1.12,5.241,5.241,0,0,1,2.54,1.49,6.786,6.786,0,0,1,1.46,2.14,6.582,6.582,0,0,1,.57,2.55,18.013,18.013,0,0,1-.4,3.1.108.108,0,0,0,.02.07,5.359,5.359,0,0,1,.37,2.5c-.06.32-.75.22-.88.01a.837.837,0,0,0-.58-.36,4.327,4.327,0,0,1-.85-.31c-.06-.03-.12-.07-.19-.11a26.576,26.576,0,0,1,.32,5.41,2.343,2.343,0,0,1,2.26.58,2.873,2.873,0,0,1,.4,3.09,4.779,4.779,0,0,1-1.71,2.38,5.028,5.028,0,0,1-1.59.56c-.1.73-.2,1.45-.29,2.18q-.27,2.115-.39,4.23a1.636,1.636,0,0,1,.76-.14,2.418,2.418,0,0,1,1.41.6,13.31,13.31,0,0,1,2.96,2.53,12.268,12.268,0,0,1,1.48,3.2q.96,2.775,1.93,5.55c-1.05-.27-2.22.09-3.18-.38-1.41-.68-1.7-2.26-2.76-3.26a3.191,3.191,0,0,0-1.41-.57,3.834,3.834,0,0,1-1.09-.49c.08.94.19,1.9.33,2.84.01.11.03.23.05.35.02,0,.05.01.07.01a1.1,1.1,0,0,1,.27.04,3.459,3.459,0,0,1,2.24,1.85,5.748,5.748,0,0,1,.46,2.87,4.4,4.4,0,0,1-.9,2.81c-.08.09-.18.18-.26.26.2.59.39,1.18.61,1.76,0-.01,1.63-.33,1.79-.32a4.55,4.55,0,0,1,2.15.72,4.141,4.141,0,0,1,1.48,1.43,6.07,6.07,0,0,1,.58,2.5,10.53,10.53,0,0,1-.02,2.86Z" fill="#5eadb5" />
              <path id="Path_210" data-name="Path 210" d="M570.85,197.63a6.069,6.069,0,0,0-.58-2.5,4.142,4.142,0,0,0-1.48-1.43,4.513,4.513,0,0,0-2.14-.72c-.17-.01-1.79.31-1.79.32-.22-.58-.41-1.17-.61-1.76.08-.08.18-.17.26-.26a4.322,4.322,0,0,0,.9-2.81,5.639,5.639,0,0,0-.46-2.87,3.431,3.431,0,0,0-2.24-1.85,1.1,1.1,0,0,0-.27-.04c-.02,0-.05-.01-.07-.01-.02-.12-.04-.24-.05-.35-.14-.94-.25-1.9-.33-2.84a3.992,3.992,0,0,0,1.09.49,3.122,3.122,0,0,1,1.41.57c1.06,1.01,1.35,2.58,2.76,3.26.96.48,2.13.11,3.18.38q-.96-2.775-1.93-5.55a12.27,12.27,0,0,0-1.48-3.2,13.775,13.775,0,0,0-2.96-2.53,2.418,2.418,0,0,0-1.41-.6,1.642,1.642,0,0,0-.76.15c.08-1.41.22-2.82.39-4.23.09-.73.19-1.45.29-2.18a3.862,3.862,0,0,0,3.3-2.94,2.912,2.912,0,0,0-.4-3.09,2.343,2.343,0,0,0-2.26-.58,25.919,25.919,0,0,0-.32-5.41,1.178,1.178,0,0,0,.19.11,3.772,3.772,0,0,0,.85.31.872.872,0,0,1,.58.36c.13.21.82.31.88-.01a5.489,5.489,0,0,0-.37-2.5.637.637,0,0,0-.02-.07,18.019,18.019,0,0,0,.4-3.1,6.582,6.582,0,0,0-.57-2.55,6.829,6.829,0,0,0-1.46-2.15,5.153,5.153,0,0,0-2.54-1.49,2.612,2.612,0,0,0-1.56.17,26.675,26.675,0,0,1-.29-2.76c-.13-1.89-.11-3.79-.11-5.69h0c1.07-1.04,2.53-2.38,2.06-4.06a2.415,2.415,0,0,0-1.41-1.56l-.13-.1a2.571,2.571,0,0,0-.78-.34,22.377,22.377,0,0,0-.78-3.91h0a5.216,5.216,0,0,1,1.51.66,3.675,3.675,0,0,0,1.41.6c.38.05.91.05,1.01-.42a3.868,3.868,0,0,0-.87-2.5,7.575,7.575,0,0,1-.64-1.23c-.17-.47-.14-.98-.31-1.45a2.738,2.738,0,0,0-2.27-1.52,5.612,5.612,0,0,0-2.89.33,10.763,10.763,0,0,0-2.26-1.88c-.22-.14-.94.05-.56.29a9.979,9.979,0,0,1,2.03,1.68,3.224,3.224,0,0,0-.68.17,2.4,2.4,0,0,0-1.59,1.96,2.578,2.578,0,0,0,1.3,2.26,6.757,6.757,0,0,0,3.12.83c.28.03.56.05.84.08a20.6,20.6,0,0,1,.58,2.28c.1.55.19,1.11.25,1.67a3.106,3.106,0,0,0-1.94.69,2.565,2.565,0,0,0-.82.64,4.94,4.94,0,0,0-.57.97c-.23.47-.46.95-.7,1.42a5.339,5.339,0,0,0-.67,2.5c0,.94.08,1.88.12,2.81l.07,1.43a4.184,4.184,0,0,0,.12,1.12c.24.72,1.08.76,1.69.51,1.32-.54,1.45-2.05,1.77-3.33a10.244,10.244,0,0,1,1.18-1.74c0,1.44,0,2.88.08,4.31a26.853,26.853,0,0,0,.4,3.58.61.61,0,0,0,.03.13,4.4,4.4,0,0,0-1.02,4.98,6.768,6.768,0,0,0,2.24,2.18,7.975,7.975,0,0,1,1.18.98,6.544,6.544,0,0,1,.7.96c.05.21.1.41.14.62a24.875,24.875,0,0,1,.46,6.08c-.01,0-1.49.38-1.66.44a2.906,2.906,0,0,0-1.58,1.06,7.038,7.038,0,0,0-.91,1.94c-.39,1.07-.78,2.14-1.17,3.22a9.916,9.916,0,0,1-.93,2.07,16.728,16.728,0,0,0-1.19,1.74,6.371,6.371,0,0,0-.44,2.45,2.922,2.922,0,0,0,.25,1.66,30.371,30.371,0,0,1,2.62-2.82,16.4,16.4,0,0,0,2.62-2.51c.51-.7.69-1.62,1.44-2.1.08-.05.17-.09.25-.14-.03.27-.06.54-.1.82-.23,1.73-.42,3.47-.52,5.21a2.286,2.286,0,0,0-1.64.83,2.987,2.987,0,0,0-.04,3.19,7.161,7.161,0,0,0,1.02,1.43c.23.27.47.54.71.79.05.82.13,1.63.23,2.45.07.58.16,1.17.25,1.76a2.77,2.77,0,0,0-1.1,1.17,8.946,8.946,0,0,0-1.53,5.75,8.789,8.789,0,0,1,.23,2.28,12.95,12.95,0,0,1-.64,1.94,5.2,5.2,0,0,0,.04,3.24c.45-1,1.5-1.52,2.34-2.21a8.627,8.627,0,0,0,2.11-2.66,7.9,7.9,0,0,1,.63-1.09c.18.49.36.98.55,1.47a2.561,2.561,0,0,0-.22.35,3.058,3.058,0,0,0-.25,1.71,13.364,13.364,0,0,0,.47,1.94,16.513,16.513,0,0,0,.93,3.12,7.277,7.277,0,0,0,2.05,2.05c.88.77,1.26,1.97,2.08,2.8a.659.659,0,0,0,.6.27c.36-.09.36-.59.31-.95a7.017,7.017,0,0,1,.14-2.46c.1-.43.25-.85.38-1.27.08-.27.16-.54.22-.82a10.532,10.532,0,0,0,.02-2.86Z" fill="#5eadb5" />
              <path id="Path_211" data-name="Path 211" d="M542.21,152.47a11.8,11.8,0,0,1-1.19.85,15.54,15.54,0,0,0-2.36,1.93c-.25.25-2.27,2.33-2.07,2.61a6.92,6.92,0,0,1-.76-1.6,6.482,6.482,0,0,1-.56-2.44,8.985,8.985,0,0,1,.55-2.2c.27-.94.39-1.92.72-2.84a6.034,6.034,0,0,1,1.51-2.14c.11-.12,1.54-1.69,1.58-1.46-.23-1.68-.41-3.36-.53-5.05a.277.277,0,0,0-.01-.09c-.01-.18-2.34-1.19-2.64-1.5-.75-.8-.58-1.49-.41-2.48.26-1.47.61-3.83,2.17-4.52a2.891,2.891,0,0,1,.8-.22c.03-.58.06-1.15.1-1.73a36.8,36.8,0,0,1,.52-4.44l-.25-.06a3.09,3.09,0,0,0-1.45-.04c-.52.09-1.02.25-1.52.35a6.418,6.418,0,0,1-3.08-.08,5.457,5.457,0,0,1-1.39-.58.73.73,0,0,1-.24-1.12,6.369,6.369,0,0,1,1.99-1.77,8.843,8.843,0,0,1,2.47-1.05,9.861,9.861,0,0,1,2.7-.35,2.652,2.652,0,0,1,1.8.56c.09.03.2.06.29.09a9.084,9.084,0,0,1,1.07-1.62c.12-.14.25-.28.38-.41a6.2,6.2,0,0,1,.67-.58,5.721,5.721,0,0,1,.89-.59,9.225,9.225,0,0,0-1.76-.7c-1.02-.29-2.07-.42-3.1-.64a4.263,4.263,0,0,1-2.43-1.25,22.368,22.368,0,0,0-1.44-2.15c-.59-.56-1.36-.93-1.77-1.68-.11-.22.26-.31.41-.32a.674.674,0,0,1,.26-.09,25.715,25.715,0,0,1,4.1-.54q.915-.045,1.83-.03a4.573,4.573,0,0,1,1.68.25,4.924,4.924,0,0,1,1.27.89c.37.33.74.66,1.09,1.02a6.38,6.38,0,0,1,1.66,2.52,7.389,7.389,0,0,1,.29,2.29c.11.21.23.41.34.62,0,.01,0,.02.02.03a3.965,3.965,0,0,1,.29.29.391.391,0,0,1,.08.1h-1.86a2.273,2.273,0,0,0-.32-.22c-.06.03-.11.06-.17.09s-.14.08-.2.12a4.85,4.85,0,0,0-.77.58,7.58,7.58,0,0,0-1.77,2.45,2.483,2.483,0,0,1,.61.68,2,2,0,0,1-.33,2.41,2.035,2.035,0,0,1-1.06.59,1.782,1.782,0,0,1-.39.04,42.664,42.664,0,0,0-.59,5.83v.23c2.15.24,3.86,3.1,4.34,5.07.29,1.19.17,2.44.34,3.66v.04c.01.05.01.1.02.16.34,2.05,1.5,4.02,1.22,6.08a7.15,7.15,0,0,0-2.24-1.95,4.909,4.909,0,0,1-1.75-1.87,4.551,4.551,0,0,0-1.79-1.88c.11,1.53.28,3.06.5,4.57a2.176,2.176,0,0,1,1.15,1.01,3.645,3.645,0,0,1,1.67,1.39,3.394,3.394,0,0,1,.33,2.81,4.493,4.493,0,0,1-1.5,2.06Z" fill="#5eadb5" />
              <path id="Path_212" data-name="Path 212" d="M572.51,98.02a4.218,4.218,0,0,1,3.15-.15,8.378,8.378,0,0,1-1.76,3.98,8.261,8.261,0,0,1-2.09,1.41,6.2,6.2,0,0,1-2.88.96,3.467,3.467,0,0,0-.79.02c-.33.07-.53.38-.83.52a3.435,3.435,0,0,1-1.45.24c-.12,0-.24-.02-.36-.03l-4.14,2.62-.02.04a.371.371,0,0,1-.34.19c-.44.28-.89.56-1.33.84a.913.913,0,0,1-.07.14c1.17-.03,2.19.39,3.33.28a8.358,8.358,0,0,1,3.42.61,5.484,5.484,0,0,1,1.89.89,5.387,5.387,0,0,1,1.4,2.54,8.11,8.11,0,0,1-3.18.1,5.233,5.233,0,0,0-1.71-.16c-.88.14-1.59.85-2.48.99a3.97,3.97,0,0,1-1.67-.21,10.9,10.9,0,0,1-2.87-.9,3.547,3.547,0,0,1-.83-.76c-.06-.08-.49-1.13-.37-1.09-.02,0-.05-.01-.07-.01a19.622,19.622,0,0,0-2.07,2.38,36.049,36.049,0,0,0-3.38,5.07h-1.32a5.139,5.139,0,0,1-1.27-1.1,3.206,3.206,0,0,1-.6-1.99,20.708,20.708,0,0,1,.22-2.36c.1-.86.19-1.72.29-2.58.04-.37.76-.31.92-.07.4.59.8,1.19,1.2,1.79a10.513,10.513,0,0,1,.99,1.64,3.076,3.076,0,0,1,.14,1.8l-.09.45c.76-1.13,1.57-2.24,2.4-3.32a17,17,0,0,1,1.47-1.68.14.14,0,0,1,.04-.2,1.584,1.584,0,0,1,.38-.21,14.112,14.112,0,0,1,1.33-1.1c.55-.4,1.11-.78,1.68-1.15.71-.46.15-2.76-.03-3.37-.34-1.11-.97-2.24-.71-3.44.21-1,1-1.77,1.4-2.7a28.352,28.352,0,0,0,.67-2.9,4.936,4.936,0,0,1,3.06-3.19c.09,2.25,1.54,4.42,1.03,6.61-.16.67-.49,1.29-.69,1.95a10.361,10.361,0,0,0-.28,2,5.74,5.74,0,0,1-.18,1.55,3.013,3.013,0,0,1,.42-.27c.22-.12.53-1.5.67-1.79a5.549,5.549,0,0,1,1.21-1.7,8.1,8.1,0,0,1,2.95-2.13c1.08-.35,2.22-.44,3.32-.74.29-.08.59-.17.89-.27Z" fill="#5eadb5" />
            </g>
          </g>
        </g>
        <g id="Group_75" data-name="Group 75">
          <g id="Group_73" data-name="Group 73">
            <rect id="Rectangle_61" data-name="Rectangle 61" width="5.89" height="4.84" transform="translate(420.82 38.6)" fill="#3a255d" />
            <rect id="Rectangle_62" data-name="Rectangle 62" width="5.89" height="4.84" transform="translate(464.22 38.6)" fill="#3a255d" />
          </g>
          <path id="Path_213" data-name="Path 213" d="M479.41,43.99a4.692,4.692,0,0,0-3.66-1.94H415.2a4.692,4.692,0,0,0-3.66,1.94l-5.44,6.94h78.76l-5.44-6.94Z" fill="#bee2ea" />
          <rect id="Rectangle_63" data-name="Rectangle 63" width="43.4" height="2.76" transform="translate(423.77 37.21)" fill="#3a255d" />
          <g id="Group_74" data-name="Group 74">
            <rect id="Rectangle_64" data-name="Rectangle 64" width="1.07" height="39.98" transform="translate(441.18)" fill="#3a255d" />
            <rect id="Rectangle_65" data-name="Rectangle 65" width="1.07" height="39.98" transform="translate(448.68)" fill="#3a255d" />
          </g>
        </g>
      </g>
    </g>
  </g>
</svg>